<?xml version="1.0" encoding="utf-8"?>
<!-- Generator: Adobe Illustrator 23.0.0, SVG Export Plug-In . SVG Version: 6.00 Build 0)  -->
<svg version="1.1" id="Layer_1" xmlns="http://www.w3.org/2000/svg" xmlns:xlink="http://www.w3.org/1999/xlink" x="0px" y="0px"
	 viewBox="0 0 512 512" style="enable-background:new 0 0 512 512;" xml:space="preserve">
<style type="text/css">
	.st0{fill:#008CBA;}
</style>
<g>
	<g>
		<g>
			<path class="st0" d="M277.4,245.3V138.7c0-4.3-2.6-8.2-6.6-9.9c-4-1.6-8.6-0.8-11.6,2.3l-21.3,21.3c-4.2,4.2-4.2,10.9,0,15.1
				s10.9,4.2,15.1,0l3.1-3.1v80.9c0,5.9,4.8,10.7,10.7,10.7S277.3,251.2,277.4,245.3z"/>
			<path class="st0" d="M447.2,497.3l-73.7-179.1c1-2.3,2-4.3,3.2-5.5c2.9-2.9,9.6-4.9,16.2-6.9c10.9-3.3,23.2-7,29.4-17.7
				c6.1-10.6,3.3-23.1,0.7-34.1c-1.6-6.7-3.2-13.7-2.1-17.8c1-3.7,6-9,10.3-13.7c7.9-8.4,16.8-17.9,16.8-30.5
				c0-12.7-8.9-22.1-16.8-30.5c-4.4-4.7-9.3-9.9-10.3-13.7c-1.1-4.1,0.5-11.1,2.1-17.8c2.6-11,5.5-23.5-0.7-34.1
				c-6.2-10.7-18.5-14.4-29.4-17.7c-6.5-2-13.3-4-16.2-6.9c-2.9-2.9-4.9-9.6-6.9-16.2c-3.3-10.9-7-23.2-17.8-29.4
				c-10.6-6.1-23-3.2-34-0.7c-6.7,1.6-13.8,3.2-17.8,2.1c-3.7-1-9-5.9-13.7-10.3C278.2,8.9,268.6,0,256,0s-22.2,8.9-30.5,16.8
				c-4.7,4.4-9.9,9.3-13.6,10.3c-4.1,1-11.1-0.5-17.8-2.1c-11-2.5-23.4-5.4-34,0.7c-10.7,6.2-14.5,18.5-17.7,29.4
				c-2,6.5-4,13.3-6.9,16.2c-2.9,2.9-9.6,4.9-16.2,6.9c-10.9,3.3-23.2,7-29.4,17.7C83.6,106.5,86.5,119,89,130
				c1.6,6.7,3.2,13.7,2.1,17.8c-1,3.7-6,9-10.3,13.7C72.9,169.8,64,179.3,64,192c0,12.7,8.9,22.1,16.8,30.5
				c4.4,4.7,9.3,9.9,10.3,13.7c1.1,4.1-0.5,11.1-2.1,17.8c-2.6,11-5.5,23.5,0.7,34.1c6.2,10.7,18.5,14.4,29.4,17.7
				c6.5,2,13.3,4,16.2,6.9c1.2,1.2,2.2,3.2,3.2,5.5L64.8,497.3c-1.7,4.1-0.7,8.9,2.6,11.9c2,1.9,4.6,2.9,7.3,2.9
				c1.6,0,3.3-0.4,4.8-1.1l79.8-39.9l58.9,39.2c2.7,1.8,6.1,2.3,9.2,1.3c3.1-1,5.6-3.3,6.7-6.4l23.3-62.1l20.6,61.8
				c1,3.1,3.5,5.6,6.7,6.7c3.1,1.1,6.6,0.6,9.4-1.2l58.9-39.2l79.8,39.9c1.5,0.7,3.2,1.1,4.8,1.1c2.6,0,5.2-1,7.3-2.9
				C447.9,506.1,448.9,501.4,447.2,497.3z M246,412.2L218.8,485l-52.8-35.2c-3.2-2.1-7.3-2.4-10.7-0.7l-59.9,29.9l54.3-131.7
				c2.6,4.4,5.7,8.3,10.3,11c10.6,6.2,23,3.2,34,0.7c6.7-1.6,13.7-3.2,17.8-2.1c3.7,1,9,5.9,13.7,10.3c3,2.8,6.2,5.7,9.6,8.3
				c0.1,0.4,0,0.8,0.1,1.2l11.5,34.5C246.5,411.5,246.2,411.8,246,412.2z M256,362.7c-4.2,0-10.4-5.8-15.9-11
				c-6.8-6.4-13.8-13-22.7-15.4c-2.9-0.8-5.8-1.1-8.7-1.1c-6.5,0-13,1.5-19.4,3c-6.8,1.6-15.2,3.6-18.5,1.6c-3.4-2-5.9-10-8-17.2
				c-2.7-9.1-5.6-18.4-12.2-25.1c-6.6-6.6-16-9.5-25.1-12.2c-7.1-2.2-15.2-4.6-17.2-8c-1.9-3.3,0.1-11.8,1.6-18.5
				c2.2-9.3,4.4-18.9,1.9-28.1c-2.4-8.9-9-16-15.4-22.8c-5.2-5.5-11-11.7-11-15.9s5.8-10.4,11-15.9c6.4-6.8,13-13.8,15.4-22.7
				c2.5-9.2,0.2-18.8-1.9-28.1c-1.6-6.8-3.5-15.3-1.6-18.6c2-3.4,10-5.9,17.1-8c9.1-2.7,18.4-5.5,25.1-12.2
				c6.7-6.7,9.5-16,12.2-25.1c2.1-7.1,4.6-15.1,8-17.2c3.3-1.9,11.8,0.1,18.6,1.6c9.3,2.2,18.9,4.4,28.1,1.9
				c8.9-2.4,15.9-9,22.7-15.4c5.5-5.2,11.7-11,15.9-11s10.4,5.8,16,11c6.8,6.4,13.8,13,22.7,15.4c9.2,2.5,18.8,0.2,28.1-1.9
				c6.8-1.6,15.3-3.6,18.5-1.6c3.4,2,5.9,10,8,17.2c2.7,9.1,5.6,18.4,12.2,25.1c6.6,6.6,16,9.5,25.1,12.2c7.1,2.2,15.2,4.6,17.2,8
				c1.9,3.3-0.1,11.8-1.6,18.5c-2.2,9.3-4.4,18.9-1.9,28.1c2.4,8.9,9,16,15.4,22.8c5.2,5.5,11,11.7,11,15.9s-5.8,10.4-11,15.9
				c-6.4,6.8-13,13.8-15.4,22.7c-2.5,9.2-0.2,18.8,1.9,28.1c1.6,6.8,3.5,15.3,1.6,18.6c-2,3.4-10,5.9-17.1,8
				c-9.1,2.7-18.4,5.5-25.1,12.2c-6.7,6.7-9.5,16-12.2,25.1c-2.1,7.1-4.6,15.1-8,17.2c-3.3,1.9-11.8-0.1-18.6-1.6
				c-9.3-2.2-18.9-4.4-28.1-1.9c-8.9,2.4-15.9,9-22.7,15.4C266.4,356.8,260.2,362.7,256,362.7z M356.8,449.1
				c-3.5-1.7-7.5-1.5-10.7,0.7l-52.4,34.9l-33.8-101.4c10.7-1.6,19.2-9.1,26.6-16.1c4.7-4.4,9.9-9.3,13.6-10.3
				c4.1-1.1,11.1,0.5,17.8,2.1c11,2.5,23.5,5.4,34-0.7c4.6-2.7,7.8-6.6,10.3-11l54.3,131.7L356.8,449.1z"/>
		</g>
	</g>
</g>
</svg>
