<?xml version="1.0" encoding="utf-8"?>
<!-- Generator: Adobe Illustrator 23.0.0, SVG Export Plug-In . SVG Version: 6.00 Build 0)  -->
<svg version="1.1" id="Layer_1" xmlns="http://www.w3.org/2000/svg" xmlns:xlink="http://www.w3.org/1999/xlink" x="0px" y="0px"
	 viewBox="0 0 512 512" style="enable-background:new 0 0 512 512;" xml:space="preserve">
<style type="text/css">
	.st0{fill:#008CBA;}
</style>
<g>
	<g>
		<g>
			<path class="st0" d="M400.1,164.2c-29.7-29.7-67-49.1-107.5-56.4V62.7h31.3c5.8,0,10.4-4.7,10.4-10.4V10.4
				c0-5.8-4.7-10.4-10.4-10.4H188.1c-5.8,0-10.4,4.7-10.4,10.4v41.8c0,5.8,4.7,10.4,10.4,10.4h31.3v45.1
				c-40.5,7.3-77.8,26.7-107.5,56.4c-38.5,38.5-59.7,89.6-59.7,144.1c0,54.4,21.2,105.6,59.7,144.1C150.4,490.8,201.6,512,256,512
				c54.4,0,105.6-21.2,144.1-59.7c38.5-38.5,59.7-89.6,59.7-144.1C459.8,253.8,438.6,202.6,400.1,164.2z M198.5,41.8V20.9h114.9
				v20.9h-31.3c-5.8,0-10.4,4.7-10.4,10.4v52.2h-31.3V62.7H256V41.8H198.5z M256,491.1c-100.8,0-182.9-82-182.9-182.9
				s82-182.9,182.9-182.9s182.9,82,182.9,182.9S356.8,491.1,256,491.1z"/>
			<path class="st0" d="M256,146.3c-89.3,0-162,72.7-162,162s72.7,162,162,162s162-72.7,162-162S345.3,146.3,256,146.3z
				 M266.4,448.9v-20.5h-20.9v20.5c-69.5-5.1-125.1-60.8-130.2-130.2h20.5v-20.9h-20.5c5.1-69.5,60.8-125.1,130.2-130.2v20.5h20.9
				v-20.5c69.5,5.1,125.1,60.8,130.2,130.2h-20.5v20.9h20.5C391.6,388.2,335.9,443.8,266.4,448.9z"/>
			<path class="st0" d="M180.2,246.5l44.3,88.6c1,2,2.7,3.7,4.7,4.7l88.6,44.3c4,2,8.9,1.2,12.1-2c2-2,3.1-4.7,3.1-7.4
				c0-1.6-0.4-3.2-1.1-4.7l-44.3-88.6c-1-2-2.7-3.7-4.7-4.7l-88.6-44.3c-4-2-8.9-1.2-12.1,2C179,237.6,178.2,242.4,180.2,246.5z
				 M299.1,351.3l-47.6-23.8l23.8-23.8L299.1,351.3z M260.5,289l-23.8,23.8l-23.8-47.6L260.5,289z"/>
		</g>
	</g>
</g>
</svg>
