<?xml version="1.0" encoding="utf-8"?>
<!-- Generator: Adobe Illustrator 23.0.0, SVG Export Plug-In . SVG Version: 6.00 Build 0)  -->
<svg version="1.1" xmlns="http://www.w3.org/2000/svg" xmlns:xlink="http://www.w3.org/1999/xlink" x="0px" y="0px"
	 viewBox="0 0 108.9 74.2" style="enable-background:new 0 0 108.9 74.2;" xml:space="preserve">
<style type="text/css">
	.st0{display:none;}
	.st1{fill:none;stroke:#E71F29;stroke-width:3;stroke-miterlimit:10;}
	.st2{fill:#FFFFFF;stroke:#E71F29;stroke-width:3;stroke-miterlimit:10;}
</style>
<g id="Слой_1" class="st0">
	<title>Ресурс 1</title>
</g>
<g id="Слой_2">
	<path class="st1" d="M105.9,51H23.4V5c0-1.1,0.9-2,2-2h78.5c1.1,0,2,0.9,2,2V51z"/>
	<path class="st2" d="M96,61H13.5V15c0-1.1,0.9-2,2-2H94c1.1,0,2,0.9,2,2V61z"/>
	<path class="st2" d="M85.9,71H3.4V25c0-1.1,0.9-2,2-2h78.5c1.1,0,2,0.9,2,2V71z"/>
	<rect x="23.9" y="38.7" class="st1" width="18.7" height="31.8"/>
	<rect x="51.8" y="39.7" class="st1" width="18.7" height="17.2"/>
</g>
</svg>
