<?xml version="1.0" encoding="utf-8"?>
<!-- Generator: Adobe Illustrator 23.0.0, SVG Export Plug-In . SVG Version: 6.00 Build 0)  -->
<svg version="1.1" id="Layer_1" xmlns="http://www.w3.org/2000/svg" xmlns:xlink="http://www.w3.org/1999/xlink" x="0px" y="0px"
	 viewBox="0 0 512 512" style="enable-background:new 0 0 512 512;" xml:space="preserve">
<style type="text/css">
	.st0{fill:#E71F29;}
</style>
<g>
	<g>
		<g>
			<path class="st0" d="M266.7,53.3c0-5.9-4.8-10.7-10.7-10.7c-68,0-127.4,45.9-144.5,111.6c-1.5,5.7,1.9,11.5,7.6,13
				c0.9,0.2,1.8,0.3,2.7,0.3c4.7,0,9.1-3.2,10.3-8C146.8,103.3,197.7,64,256,64C261.9,64,266.7,59.2,266.7,53.3z"/>
			<path class="st0" d="M117.9,175.1c-5.9-0.3-10.9,4.3-11.1,10.2c-0.1,2.2-0.1,4.5-0.1,6.7c0,5.9,4.8,10.7,10.7,10.7
				S128,197.9,128,192c0-1.9,0-3.8,0.1-5.7C128.4,180.4,123.8,175.4,117.9,175.1z"/>
			<path class="st0" d="M392.9,216.7c-5.7-1.5-11.5,1.9-13,7.6C365.2,280.7,314.3,320,256,320c-5.9,0-10.7,4.8-10.7,10.7
				c0,5.9,4.8,10.7,10.7,10.7c68,0,127.4-45.9,144.5-111.6C402,224,398.6,218.2,392.9,216.7z"/>
			<path class="st0" d="M394.1,208.9c0.2,0,0.3,0,0.5,0c5.7,0,10.4-4.5,10.6-10.2c0.1-2.2,0.1-4.5,0.1-6.7c0-5.9-4.8-10.7-10.7-10.7
				c-5.9,0-10.7,4.8-10.7,10.7c0,1.9,0,3.8-0.1,5.7C383.6,203.6,388.2,208.6,394.1,208.9z"/>
			<path class="st0" d="M295.4,260.4c0.9-0.7,1.3-2.1,1.3-4.1v-13.1c0-3.6-2-5.3-6-5.3h-15.2v-101c0-9.4-4.6-14.2-13.8-14.2h-1.6v0
				c-5.3,0-11.3,1.4-17.9,4.1l-24,9.7c-2.1,1-3.1,2.3-3.1,3.9c0,1.4,1.6,6.4,4.7,15.2c0.7,1.9,1.9,2.9,3.7,2.9c1.5,0,3.1-0.3,4.7-1
				l19.5-7.4v87.9h-19.5c-4,0-6,1.8-6,5.3v12.7c0,3.7,2,5.5,6,5.5H291C293.1,261.4,294.5,261.1,295.4,260.4z"/>
			<path class="st0" d="M457.2,427.7l-60.7-105.1C428.5,288.3,448,242.4,448,192C448,86.1,361.9,0,256,0C150.1,0,64,86.1,64,192
				c0,50.4,19.5,96.3,51.4,130.6L54.8,427.7c-2.2,3.7-1.9,8.4,0.8,11.8c2.6,3.4,7.1,4.9,11.2,3.8l83-22.2l22.2,82.9
				c1.1,4.2,4.6,7.3,8.9,7.8c0.5,0.1,0.9,0.1,1.4,0.1c3.8,0,7.3-2,9.2-5.3l64.5-111.9l64.6,111.9c1.9,3.3,5.5,5.3,9.2,5.3
				c0.5,0,0.9,0,1.4-0.1c4.3-0.6,7.8-3.6,8.9-7.8l22.2-83l83,22.2c4.2,1.1,8.6-0.4,11.2-3.8C459.1,436.1,459.4,431.5,457.2,427.7z
				 M185.9,473.7l-18.3-68.4c-1.5-5.7-7.4-9.1-13.1-7.5l-68.4,18.3l45.2-78.2c29.3,25.1,66.2,41.5,106.7,45.3L185.9,473.7z
				 M85.3,192c0-94.1,76.6-170.7,170.7-170.7c94.1,0,170.7,76.6,170.7,170.7c0,94.1-76.6,170.7-170.7,170.7S85.3,286.1,85.3,192z
				 M357.5,397.8c-5.7-1.5-11.5,1.9-13.1,7.5l-18.3,68.4l-52.3-90.5c40.6-3.8,77.5-20.2,106.9-45.3l45.2,78.2L357.5,397.8z"/>
		</g>
	</g>
</g>
</svg>
