<?xml version="1.0" encoding="utf-8"?>
<!-- Generator: Adobe Illustrator 23.0.0, SVG Export Plug-In . SVG Version: 6.00 Build 0)  -->
<svg version="1.1" id="Capa_1" xmlns="http://www.w3.org/2000/svg" xmlns:xlink="http://www.w3.org/1999/xlink" x="0px" y="0px"
	 viewBox="0 0 64.5 63" style="enable-background:new 0 0 64.5 63;" xml:space="preserve">
<style type="text/css">
	.st0{fill:#E71F29;stroke:#E71F29;stroke-miterlimit:10;}
	.st1{fill:#E71F29;}
</style>
<path class="st0" d="M61.5,1.8c-0.4-0.4-1-0.4-1.4,0l-3.7,3.7H33.1L3.8,35c-0.7,0.7-1,1.6-1,2.5s0.4,1.8,1,2.5l20.5,20.5
	c0.7,0.7,1.6,1,2.5,1c0.9,0,1.8-0.3,2.5-1l28.5-29.3V6.9l3.7-3.7C61.8,2.8,61.8,2.2,61.5,1.8z M55.7,30.4L27.8,59.1
	c-0.6,0.6-1.6,0.6-2.2,0L5.2,38.6c-0.6-0.6-0.6-1.6,0-2.2L33.9,7.5h20.4l-4.8,4.8c-0.8-0.5-1.7-0.8-2.8-0.8c-2.8,0-5,2.2-5,5
	s2.2,5,5,5s5-2.2,5-5c0-1-0.3-2-0.8-2.8l4.8-4.8V30.4z M49.7,16.5c0,1.7-1.3,3-3,3s-3-1.3-3-3s1.3-3,3-3c0.5,0,0.9,0.1,1.3,0.3l-2,2
	c-0.4,0.4-0.4,1,0,1.4c0.2,0.2,0.5,0.3,0.7,0.3s0.5-0.1,0.7-0.3l2-2C49.6,15.6,49.7,16,49.7,16.5z"/>
<g>
	<path class="st1" d="M23.7,39.8h3.6V23.4c0.3-0.1,0.7-0.2,1.1-0.2c0.4,0,0.8-0.1,1.1-0.1c0.4,0,0.7,0,1.1-0.1s0.6,0,0.8,0
		c2,0,3.7,0.6,4.9,1.7c1.2,1.1,1.8,2.9,1.8,5.3c0,1.2-0.2,2.3-0.5,3.1c-0.3,0.8-0.8,1.4-1.3,1.9c-0.6,0.5-1.2,0.8-1.9,1
		c-0.7,0.2-1.5,0.3-2.3,0.3c-0.2,0-0.4,0-0.7,0c-0.2,0-0.5,0-0.7-0.1c-0.2,0-0.4,0-0.6-0.1c-0.2,0-0.3-0.1-0.4-0.1v3.8h5v2h-5v3.1
		h-2.3v-3.1h-3.6V39.8z M30.4,25.1c-0.4,0-0.7,0.1-0.9,0.1v8.7c0.1,0,0.2,0,0.4,0.1c0.2,0,0.4,0.1,0.6,0.1c0.2,0,0.4,0,0.6,0.1
		c0.2,0,0.4,0,0.5,0c0.5,0,1.1-0.1,1.6-0.2c0.5-0.1,0.9-0.3,1.3-0.7s0.7-0.8,0.9-1.3c0.2-0.6,0.3-1.3,0.3-2.2c0-1.7-0.4-2.9-1.1-3.6
		c-0.8-0.8-1.7-1.1-2.9-1.1C31.2,25.1,30.8,25.1,30.4,25.1z"/>
</g>
</svg>
