<?xml version="1.0" encoding="utf-8"?>
<!-- Generator: Adobe Illustrator 23.0.0, SVG Export Plug-In . SVG Version: 6.00 Build 0)  -->
<svg version="1.1" xmlns="http://www.w3.org/2000/svg" xmlns:xlink="http://www.w3.org/1999/xlink" x="0px" y="0px"
	 viewBox="0 0 265.6 177.8" style="enable-background:new 0 0 265.6 177.8;" xml:space="preserve">
<style type="text/css">
	.st0{fill:none;stroke:#E71F29;stroke-width:6;stroke-linecap:round;stroke-linejoin:round;stroke-miterlimit:10;}
	.st1{fill:#E71F29;}
</style>
<g id="Capa_1">
	<path class="st0" d="M225,157.6c0,0-31.6-6.4-60.8-4.2c-33.7,2.6-75.2,7.4-100.7,7.9c-32.6,0.6-51.5-3.7-51.5-3.7v-109
		c0,0,30.1,4.1,49.8,4.1c27,0,72.3-10.5,108.6-11.3c32.6-0.7,54.6,7.1,54.6,7.1V157.6z"/>
</g>
<g id="Слой_2">
</g>
<g id="Слой_3">
	<path class="st0" d="M42,15.4c0,0,29.3,5.9,47.3,5.6c18.8-0.3,38-2.8,51.8-5.1c10.8-1.8,38.5-5.1,49.8-5.6s27.3-0.8,43,1.1
		c5.8,0.7,20.8,5.1,20.8,5.1l0.6,108.6"/>
	<path class="st0" d="M26.8,29.7c0,0,29.3,5.9,47.3,5.6c18.8-0.3,38-2.8,51.8-5.1c10.8-1.8,38.5-5.1,49.8-5.6s27.3-0.8,43,1.1
		c5.8,0.7,20.8,5.1,20.8,5.1l0.6,108.6"/>
	<path class="st0" d="M173.9,63.3c0,0,18.3,0.8,29.5,0.8"/>
	<path class="st0" d="M29.6,142.6c0,0,18.3,0.8,29.5,0.8"/>
	<g>
		<path class="st1" d="M88.1,88.3c0-7.1,4.9-12.8,12.2-12.8c7.2,0,12.1,5.6,12.1,12.8c0,7-4.9,12.8-12.2,12.8
			C93,101,88.1,95.4,88.1,88.3z M129.6,76.1h8.5L101.6,126h-8.5L129.6,76.1z M104.9,88.3c0-3.4-1.9-6.3-4.7-6.3
			c-3,0-4.6,2.9-4.6,6.3c0,3.4,1.9,6.3,4.7,6.3C103.3,94.5,104.9,91.6,104.9,88.3z M118.8,113.8c0-7.1,4.9-12.8,12.2-12.8
			c7.2,0,12.1,5.6,12.1,12.8c0,7-4.9,12.8-12.2,12.8C123.7,126.6,118.8,120.9,118.8,113.8z M135.6,113.8c0-3.4-1.9-6.3-4.7-6.3
			c-3,0-4.6,2.9-4.6,6.3c0,3.4,1.9,6.3,4.7,6.3C134,120.1,135.6,117.2,135.6,113.8z"/>
	</g>
</g>
</svg>
