<?xml version="1.0" encoding="utf-8"?>
<!-- Generator: Adobe Illustrator 23.0.0, SVG Export Plug-In . SVG Version: 6.00 Build 0)  -->
<svg version="1.1" id="Capa_1" xmlns="http://www.w3.org/2000/svg" xmlns:xlink="http://www.w3.org/1999/xlink" x="0px" y="0px"
	 viewBox="0 0 250 250" style="enable-background:new 0 0 250 250;" xml:space="preserve">
<style type="text/css">
	.st0{fill:#E71F29;}
</style>
<path color-rendering="auto" shape-rendering="auto" image-rendering="auto" class="st0" d="M93.8,0c-2.8,0-5,2.2-5,5v20
	c0,2.8,2.2,5,5,5h15v11.1c-50.8,7.3-90,51.1-90,103.9c0,57.9,47.1,105,105,105s105-47.1,105-105c0-18.2-4.6-35.3-12.8-50.3L229.7,81
	c2.2-2.2,2-5.8-0.6-7.6l-41.9-41.9c-1-1-2.3-1.5-3.6-1.5c-1.3,0-2.5,0.5-3.5,1.5l-16.5,16.5c-7.9-3.3-16.3-5.6-25-6.8V30h15
	c2.8,0,5-2.2,5-5V5c0-2.8-2.2-5-5-5H93.8z M98.8,10h50v10h-15c-2.8,0-5,2.2-5,5v15.1h-10V25c0-2.8-2.2-5-5-5h-15L98.8,10z
	 M183.8,42.1l35.4,35.4l-8.5,8.5c-9.5-13.9-22.3-25.5-37.2-33.5L183.8,42.1z M123.8,50c34.4,0,64.5,18.2,81.1,45.5
	c0.2,0.7,0.6,1.4,1.1,1.9c8.1,14,12.7,30.2,12.7,47.6c0,52.5-42.5,95-95,95s-95-42.5-95-95S71.2,50,123.8,50L123.8,50z M123.8,60
	c-46.9,0-85,38.1-85,85s38.1,85,85,85s85-38.1,85-85S170.6,60,123.8,60z M118.8,70.2V85c-0.1,6.8,10.1,6.8,10,0V70.2
	c17,1.1,32.4,7.8,44.4,18.4l-3.4,3.4c-4.7,4.7,2.4,11.8,7.1,7.1l3.4-3.4c10.5,12,17.2,27.4,18.4,44.4h-14.8c-6.8-0.1-6.8,10.1,0,10
	h14.8c-1.1,17-7.8,32.4-18.4,44.4l-3.4-3.4c-0.9-1-2.2-1.5-3.6-1.5c-4.5,0-6.7,5.5-3.5,8.6l3.4,3.4c-12,10.5-27.4,17.2-44.4,18.4
	V205c0-2.8-2.3-5.1-5.1-5.1c-2.8,0-5,2.3-4.9,5.1v14.8c-17-1.1-32.4-7.8-44.4-18.4l3.4-3.4c3.3-3.2,0.9-8.7-3.6-8.6
	c-1.3,0-2.5,0.6-3.4,1.5l-3.4,3.4c-10.5-12-17.2-27.4-18.4-44.4h14.8c6.8,0.1,6.8-10.1,0-10H48.9c1.1-17,7.8-32.4,18.4-44.4l3.4,3.4
	c4.7,4.8,11.9-2.4,7.1-7.1l-3.4-3.4C86.4,78,101.8,71.3,118.8,70.2L118.8,70.2z M123.8,100c-2.8,0-5,2.2-5,5v40c0,2.8,2.2,5,5,5h40
	c2.8,0,5-2.2,5-5C168.8,120.2,148.6,100,123.8,100z M128.8,110.5c15.3,2.2,27.3,14.2,29.5,29.5h-29.5V110.5z"/>
</svg>
