<?xml version="1.0" encoding="utf-8"?>
<!-- Generator: Adobe Illustrator 23.0.0, SVG Export Plug-In . SVG Version: 6.00 Build 0)  -->
<svg version="1.1" id="Capa_1" xmlns="http://www.w3.org/2000/svg" xmlns:xlink="http://www.w3.org/1999/xlink" x="0px" y="0px"
	 viewBox="0 0 784.5 523.7" style="enable-background:new 0 0 784.5 523.7;" xml:space="preserve">
<style type="text/css">
	.st0{fill:#E71F29;}
</style>
<g>
	<g>
		<g>
			<path class="st0" d="M453.4,438.2V363c0-11.2-3.2-22.4-8-32L399,249.4c-4.8-9.6-16-16-27.2-16h-72c-11.2,0-20.8,9.6-20.8,20.8
				v203.2h17.6c8-27.2,32-48,62.4-48c25.6,0,46.4,14.4,56,35.2c4.8,8,11.2,12.8,19.2,12.8C445.4,457.4,455,447.8,453.4,438.2z
				 M439,436.6c0,3.2-1.6,4.8-3.2,4.8c-3.2,0-4.8-1.6-4.8-3.2c-14.4-27.2-41.6-44.8-72-44.8c-25.6,0-49.6,12.8-64,32h-1.6V254.2
				c0-3.2,3.2-4.8,4.8-4.8h73.6c6.4,0,11.2,3.2,14.4,6.4l46.4,81.6c4.8,8,6.4,16,6.4,24V436.6z"/>
		</g>
	</g>
	<g>
		<g>
			<path class="st0" d="M231,169.4H7v288h48c8-27.2,32-48,62.4-48s56,20.8,62.4,48H263v-256C263,183.8,248.6,169.4,231,169.4z
				 M247,441.4h-54.4c-12.8-28.8-41.6-48-73.6-48s-60.8,19.2-73.6,48H23v-256h208c9.6,0,16,6.4,16,16V441.4z"/>
		</g>
	</g>
	<g>
		<g>
			<path class="st0" d="M359,425.4c-27.2,0-48,20.8-48,48s20.8,48,48,48s48-20.8,48-48S386.2,425.4,359,425.4z M359,505.4
				c-17.6,0-32-14.4-32-32s14.4-32,32-32s32,14.4,32,32S376.6,505.4,359,505.4z"/>
		</g>
	</g>
	<g>
		<g>
			<path class="st0" d="M119,425.4c-25.6,0-48,20.8-48,48s20.8,48,48,48s48-20.8,48-48S146.2,425.4,119,425.4z M119,505.4
				c-17.6,0-32-14.4-32-32s14.4-32,32-32s32,14.4,32,32S136.6,505.4,119,505.4z"/>
		</g>
	</g>
	<g>
		<g>
			<path class="st0" d="M371.8,265.4H311v80h107.2L371.8,265.4z M327,281.4h36.8l27.2,48h-64V281.4z"/>
		</g>
	</g>
	<g>
		<g>
			<circle class="st0" cx="119" cy="473.4" r="12"/>
		</g>
	</g>
	<g>
		<g>
			<circle class="st0" cx="359" cy="473.4" r="12"/>
		</g>
	</g>
</g>
<g>
	<g>
		<g>
			<path class="st0" d="M615.9,360.2V285c0-11.2-3.2-22.4-8-32l-46.4-81.6c-4.8-9.6-16-16-27.2-16h-72c-11.2,0-20.8,9.6-20.8,20.8
				v171.8c2,4.3,2.9,9.2,3.6,13.7c0.8,5.8,1,11.8,1.6,17.7h12.4c8-27.2,32-48,62.4-48c25.6,0,46.4,14.4,56,35.2
				c4.8,8,11.2,12.8,19.2,12.8C607.9,379.4,617.5,369.8,615.9,360.2z M601.5,358.6c0,3.2-1.6,4.8-3.2,4.8c-3.2,0-4.8-1.6-4.8-3.2
				c-14.4-27.2-41.6-44.8-72-44.8c-25.6,0-49.6,12.8-64,32h-1.6V176.2c0-3.2,3.2-4.8,4.8-4.8h73.6c6.4,0,11.2,3.2,14.4,6.4
				l46.4,81.6c4.8,8,6.4,16,6.4,24V358.6z"/>
		</g>
	</g>
	<g>
		<g>
			<path class="st0" d="M393.5,91.4h-224v85.1c2.2,0,4.4,0.1,6.6,0.4c0.1,0,0.2,0,0.3-0.1c0.7-0.4,1.5-0.7,2.6-0.7h2.6
				c1.3-0.1,2.6-0.2,3.9-0.2v-68.5h208c9.6,0,16,6.4,16,16v167.5c3.1,5,8.1,8.3,11.6,13c1.8,2.4,3.2,5.1,4.4,7.8V123.4
				C425.5,105.8,411.1,91.4,393.5,91.4z"/>
		</g>
	</g>
	<g>
		<g>
			<path class="st0" d="M521.5,347.4c-27.2,0-48,20.8-48,48s20.8,48,48,48c27.2,0,48-20.8,48-48S548.7,347.4,521.5,347.4z
				 M521.5,427.4c-17.6,0-32-14.4-32-32s14.4-32,32-32c17.6,0,32,14.4,32,32S539.1,427.4,521.5,427.4z"/>
		</g>
	</g>
	<g>
		<g>
			<path class="st0" d="M534.3,187.4h-60.8v80h107.2L534.3,187.4z M489.5,203.4h36.8l27.2,48h-64V203.4z"/>
		</g>
	</g>
	<g>
		<g>
			<circle class="st0" cx="521.5" cy="395.4" r="12"/>
		</g>
	</g>
</g>
<g>
	<g>
		<g>
			<path class="st0" d="M778.4,277.2V202c0-11.2-3.2-22.4-8-32L724,88.4c-4.8-9.6-16-16-27.2-16h-72c-11.2,0-20.8,9.6-20.8,20.8
				v203.2h17.6c8-27.2,32-48,62.4-48c25.6,0,46.4,14.4,56,35.2c4.8,8,11.2,12.8,19.2,12.8C770.4,296.4,780,286.8,778.4,277.2z
				 M764,275.6c0,3.2-1.6,4.8-3.2,4.8c-3.2,0-4.8-1.6-4.8-3.2c-14.4-27.2-41.6-44.8-72-44.8c-25.6,0-49.6,12.8-64,32h-1.6V93.2
				c0-3.2,3.2-4.8,4.8-4.8h73.6c6.4,0,11.2,3.2,14.4,6.4l46.4,81.6c4.8,8,6.4,16,6.4,24V275.6z"/>
		</g>
	</g>
	<g>
		<g>
			<path class="st0" d="M572,40.4v170c1.9,0.1,3.7,1.1,4.4,3.5c0.6,2.2,1.3,4.3,2.1,6.4c3.6,3.9,6.8,8.2,9.5,12.8V40.4
				c0-17.6-14.4-32-32-32H332v92.9c5.3,0.7,10.7,1.3,16,1.7V24.4h208C565.6,24.4,572,30.8,572,40.4z"/>
		</g>
	</g>
	<g>
		<g>
			<path class="st0" d="M684,264.4c-27.2,0-48,20.8-48,48s20.8,48,48,48s48-20.8,48-48S711.2,264.4,684,264.4z M684,344.4
				c-17.6,0-32-14.4-32-32s14.4-32,32-32s32,14.4,32,32S701.6,344.4,684,344.4z"/>
		</g>
	</g>
	<g>
		<g>
			<path class="st0" d="M696.8,104.4H636v80h107.2L696.8,104.4z M652,120.4h36.8l27.2,48h-64V120.4z"/>
		</g>
	</g>
	<g>
		<g>
			<circle class="st0" cx="684" cy="312.4" r="12"/>
		</g>
	</g>
</g>
</svg>
