<?xml version="1.0" encoding="utf-8"?>
<!-- Generator: Adobe Illustrator 23.1.0, SVG Export Plug-In . SVG Version: 6.00 Build 0)  -->
<svg version="1.1" id="Слой_1" xmlns="http://www.w3.org/2000/svg" xmlns:xlink="http://www.w3.org/1999/xlink" x="0px" y="0px"
	 viewBox="0 0 181 108.6" style="enable-background:new 0 0 181 108.6;" xml:space="preserve">
<style type="text/css">
	.st0{fill:#666666;}
</style>
<g>
	<path class="st0" d="M1.7,14.1C0.6,13,0,11.3,0,9.1c0-2.6,0.9-4.8,2.8-6.5C4.7,0.8,7,0,9.6,0h161.8c2.6,0,4.9,0.8,6.8,2.5
		c1.9,1.7,2.8,3.9,2.8,6.5c0,1.9-0.6,3.4-1.7,4.5l-1.1,1.7l-76.9,88.2c-3.4,3.4-7,5.1-10.7,5.1c-3.8,0-7.4-1.7-10.7-5.1L2.8,15.3
		L1.7,14.1z"/>
</g>
</svg>
