<?xml version="1.0" encoding="utf-8"?>
<!-- Generator: Adobe Illustrator 23.1.0, SVG Export Plug-In . SVG Version: 6.00 Build 0)  -->
<svg version="1.1" id="Слой_1" xmlns="http://www.w3.org/2000/svg" xmlns:xlink="http://www.w3.org/1999/xlink" x="0px" y="0px"
	 viewBox="0 0 181 108.6" style="enable-background:new 0 0 181 108.6;" xml:space="preserve">
<style type="text/css">
	.st0{fill:#666666;}
</style>
<g>
	<path class="st0" d="M2.8,93.3L79.8,5.1c3.4-3.4,7-5.1,10.7-5.1c3.8,0,7.4,1.7,10.7,5.1l76.9,88.2l1.1,1.7c1.1,1.1,1.7,2.6,1.7,4.5
		c0,2.6-0.9,4.8-2.8,6.5c-1.9,1.7-4.2,2.5-6.8,2.5H9.6c-2.6,0-4.9-0.8-6.8-2.5c-1.9-1.7-2.8-3.9-2.8-6.5c0-2.3,0.6-4,1.7-5.1
		L2.8,93.3z"/>
</g>
</svg>
