<svg xmlns="http://www.w3.org/2000/svg" viewBox="0 0 465 465" width="465" height="465">
	<style>
		tspan { white-space:pre }
		.shp0 { fill: #0098e1 } 
	</style>
	<g id="Layer">
		<path id="Layer" fill-rule="evenodd" class="shp0" d="M450 330C450 336 447 340.5 442.5 343.5L240 460.5C237 462 235.5 462 232.5 462C229.5 462 228 462 225 460.5L21 343.5C16.5 340.5 13.5 336 13.5 330L13.5 121.5C15 120 15 120 15 120C16.5 118.5 18 117 18 117C18 115.5 19.5 115.5 19.5 115.5L21 114L223.5 1.5C228 -1.5 234 -1.5 238.5 1.5L442.5 114L444 115.5C444 117 445.5 117 445.5 117L447 118.5C448.5 118.5 448.5 120 448.5 120C450 120 450 121.5 450 121.5L450 330ZM403.5 127.5L246 40.5L246 145.5L310.5 181.5L403.5 127.5ZM58.5 127.5L151.5 181.5L216 145.5L216 40.5L58.5 127.5ZM43.5 321L217.5 421.5L217.5 253.5L43.5 153L43.5 321ZM420 321L420 153L246 253.5L246 421.5L420 321Z" />
	</g>
</svg>