<?xml version="1.0" encoding="utf-8"?>
<!-- Generator: Adobe Illustrator 23.0.0, SVG Export Plug-In . SVG Version: 6.00 Build 0)  -->
<svg version="1.1" id="Capa_1" xmlns="http://www.w3.org/2000/svg" xmlns:xlink="http://www.w3.org/1999/xlink" x="0px" y="0px"
	 viewBox="0 0 512 512" style="enable-background:new 0 0 512 512;" xml:space="preserve">
<style type="text/css">
	.st0{fill:#008CBA;}
</style>
<g>
	<g>
		<path class="st0" d="M264.5,247.5h-17.1c-4.7,0-8.5,3.8-8.5,8.5c0,4.7,3.8,8.5,8.5,8.5h17.1c4.7,0,8.5-3.8,8.5-8.5
			S269.3,247.5,264.5,247.5z"/>
	</g>
</g>
<g>
	<g>
		<path class="st0" d="M230.4,187.7h-34.1c-4.7,0-8.5,3.8-8.5,8.5s3.8,8.5,8.5,8.5h8.5v8.5c0,4.7,3.8,8.5,8.5,8.5
			c4.7,0,8.5-3.8,8.5-8.5v-8.5h8.5c4.7,0,8.5-3.8,8.5-8.5S235.1,187.7,230.4,187.7z"/>
	</g>
</g>
<g>
	<g>
		<path class="st0" d="M315.7,187.7h-34.1c-4.7,0-8.5,3.8-8.5,8.5s3.8,8.5,8.5,8.5h8.5v8.5c0,4.7,3.8,8.5,8.5,8.5s8.5-3.8,8.5-8.5
			v-8.5h8.5c4.7,0,8.5-3.8,8.5-8.5S320.5,187.7,315.7,187.7z"/>
	</g>
</g>
<g>
	<g>
		<path class="st0" d="M273.1,281.6h-34.1c-4.7,0-8.5,3.8-8.5,8.5s3.8,8.5,8.5,8.5h34.1c4.7,0,8.5-3.8,8.5-8.5
			S277.8,281.6,273.1,281.6z"/>
	</g>
</g>
<g>
	<g>
		<path class="st0" d="M461.8,478.6l-11.4-35.5c-9.6-25.7-29-46.6-54-58c-0.3-0.2-0.7-0.4-1-0.5c-11.1-5-23.1-7.9-35.3-8.8
			c-0.6-0.2-1.2-0.3-1.7-0.4c-0.4,0-0.7,0.1-1.1,0.2c-1.5-0.1-2.9-0.2-4.4-0.2h-23.3c-5-16.5-6-33.9-2.9-50.8c1.1-9,2.6-18,4.6-26.9
			c10.6-11.6,17.1-26.3,18.6-41.9c1.1,0.3,2.2,0.5,3.3,0.6c1.6,0,3.1-0.3,4.6-0.8c4.4-1.5,17.8-5.9,17.8-59.4
			c0.1-5.8-0.6-11.5-2.3-17.1h19.4v-34.1c0-10.8-6.9-20.4-17.1-24v-18.6c-0.1-44.3-34.1-81.3-78.3-85C293.7,7,284,0,273.1,0h-39.5
			c-11.2,0-21,7.3-24.3,18c-41.7,6.3-72.6,42.1-72.7,84.4V121c-10.2,3.6-17,13.2-17.1,24v34.1h19.4c-1.7,5.5-2.5,11.3-2.3,17.1
			c0,53.5,13.4,57.9,17.8,59.4c1.5,0.5,3,0.8,4.6,0.8c1.1-0.1,2.2-0.2,3.3-0.6c1.5,15.6,8,30.3,18.6,41.9c2,8.9,3.5,17.9,4.6,26.9
			c3.1,16.9,2.1,34.3-2.9,50.8h-23.3c-1.5,0-2.9,0.2-4.4,0.2c-0.4-0.1-0.7-0.2-1.1-0.2c-0.6,0.1-1.2,0.2-1.7,0.4
			c-12.2,0.8-24.1,3.8-35.3,8.8c-0.4,0.1-0.7,0.3-1,0.5c-25.1,11.5-44.6,32.5-54.2,58.4l-11.2,35.1c-2.5,7.8-1.2,16.3,3.7,22.9
			c4.8,6.6,12.5,10.5,20.7,10.5h362.9c14.1,0,25.6-11.5,25.6-25.6C463,483.8,462.6,481.1,461.8,478.6z M110.9,494.9H74.6
			c-4.7,0-8.5-3.8-8.5-8.5c0-0.9,0.1-1.8,0.4-2.6l11.1-34.7c4.3-11.7,11.2-22.2,20-31c4.1-4.1,8.6-7.8,13.4-11V494.9z M145.1,494.9
			H128v-96.6c5.5-2.1,11.2-3.6,17.1-4.6V494.9z M179.2,494.9h-17.1V392.5h17.1V494.9z M358.4,196.3c0,26.7-3.7,38.7-5.8,42.4l0,0
			c-1.3-1.2-2.6-2.5-3.7-3.9c-0.5-16.6,1.1-33.2,4.9-49.4c0.9-0.7,1.8-1.2,2.9-1.7C358.1,187.7,358.7,192,358.4,196.3z M298.7,34.7
			c34.1,4.3,59.7,33.3,59.7,67.7v17.1h-59.7V34.7z M225.1,25.6c0-4.7,3.8-8.5,8.5-8.5h39.5c4.7,0,8.5,3.8,8.5,8.5v93.9h-56.5V25.6z
			 M153.6,102.4c0.1-32.3,22.8-60.2,54.4-66.8v83.9h-54.4V102.4z M136.5,162.1v-17.1c0-4.7,3.8-8.5,8.5-8.5h221.9
			c4.7,0,8.5,3.8,8.5,8.5v17.1H136.5z M163.1,234.7c-1.1,1.4-2.3,2.7-3.7,3.9c-2.1-3.7-5.8-15.7-5.8-42.4c-0.3-4.3,0.3-8.6,1.8-12.6
			c1,0.4,2,1,2.9,1.7C162,201.5,163.6,218.1,163.1,234.7z M179.2,255.3c0-1.9,0.1-3.8,0.2-5.5c2.2-23.6,0.5-47.5-5.1-70.6h163.4
			c-5.6,23.1-7.3,46.9-5.1,70.5c0.1,1.8,0.2,3.7,0.2,5.6c0,16.5-17.9,40.1-50.3,66.3c-15.5,12.5-37.6,12.5-53.1,0
			C197.1,295.4,179.2,271.8,179.2,255.3z M247.5,494.9h-51.2v-94.6c3.6,4.1,7.3,9,10.7,13.3c11.8,15.3,25,32.3,40.5,37.1V494.9z
			 M220.5,403.3c-6.1-8.8-13.3-16.8-21.3-23.9c5.3-18.4,6.3-37.8,3.1-56.7l0,0c-0.1-0.8-0.2-1.6-0.3-2.4c5.2,4.8,10.6,9.6,16.8,14.6
			c21.7,17.6,52.8,17.6,74.6,0c6.2-5,11.6-9.8,16.8-14.6c-0.1,0.8-0.3,1.6-0.3,2.4c-3.2,18.9-2.1,38.3,3.1,56.7
			c-8,7.1-15.2,15.1-21.3,23.9c-11,14.2-24.6,31.9-35.5,31.9S231.5,417.5,220.5,403.3z M315.7,494.9h-51.2v-44.1
			c15.5-4.8,28.7-21.8,40.5-37.1c3.4-4.4,7.1-9.2,10.7-13.3L315.7,494.9L315.7,494.9z M349.9,494.9h-17.1V392.5h17.1V494.9z
			 M384,494.9h-17.1V393.7c5.8,0.9,11.5,2.5,17.1,4.6V494.9z M440,494.5c-0.8,0.3-1.7,0.4-2.6,0.4h-36.4V407
			c4.8,3.2,9.3,6.9,13.5,11c8.7,8.7,15.5,19.1,19.8,30.6l11.2,35.1C447,488.3,444.5,493.1,440,494.5z"/>
	</g>
</g>
</svg>
