<?xml version="1.0" encoding="utf-8"?>
<!-- Generator: Adobe Illustrator 23.0.0, SVG Export Plug-In . SVG Version: 6.00 Build 0)  -->
<svg version="1.1" id="Capa_1" xmlns="http://www.w3.org/2000/svg" xmlns:xlink="http://www.w3.org/1999/xlink" x="0px" y="0px"
	 viewBox="0 0 481.3 481.3" style="enable-background:new 0 0 481.3 481.3;" xml:space="preserve">
<style type="text/css">
	.st0{fill:#CDCDCD;}
</style>
<g>
	<g id="Layer_2_16_">
		<g>
			<path class="st0" d="M138.8,146.2c3.1,41,19.4,23.3,22.8,41.3c5.6,29.8,32,51.4,48.5,58.9c9.6,4.3,19.5,6.5,29.9,6.7v0
				c0,0,0.1,0,0.1,0s0.1,0,0.1,0v0c10.4-0.2,20.3-2.4,29.9-6.7c16.5-7.5,42.9-29,48.5-58.9c3.4-18,19.7-0.3,22.8-41.3
				c0-16.3-8.9-20.4-8.9-20.4s4.5-24.2,6.3-42.8C340.9,59.9,325.1,0,241.3,0c-0.4,0-0.7,0-1.1,0c0,0,0,0,0,0v0c0,0-0.1,0-0.1,0
				s-0.1,0-0.1,0v0c0,0,0,0,0,0c-0.4,0-0.7,0-1.1,0c-83.9,0-99.6,59.9-97.4,83.1c1.8,18.6,6.3,42.8,6.3,42.8
				S138.8,129.9,138.8,146.2z"/>
			<path class="st0" d="M430.3,347.4C388,325.8,326.7,299,323.7,298c0,0-0.1,0-0.1,0c-1.7-0.6-3.6-1-5.5-1c-7.2,0-13.3,4.6-15.5,11
				c0,0,0,0,0,0c-10.9,26.3-31,73.2-43.4,95.8l-3-63.4c0,0,18.7-39.7,20.8-43.3c4.8-8.5,0.5-15.8-8.6-15.8c-4.5,0-15.7,0-26.9,0
				c0,0,0,0,0,0c-0.1,0-0.1,0-0.2,0c0,0,0,0,0,0c-0.2,0-0.3,0-0.5,0s-0.3,0-0.5,0c0,0,0,0,0,0c-0.1,0-0.1,0-0.2,0c0,0,0,0,0,0
				c-11.2,0-22.4,0-26.9,0c-9,0-13.4,7.3-8.6,15.8c2,3.6,20.8,43.3,20.8,43.3l-3,63.4c-12.5-22.6-32.5-69.5-43.4-95.8c0,0,0,0,0,0
				c-2.3-6.4-8.4-11-15.5-11c-1.9,0-3.8,0.3-5.5,1c0,0-0.1,0-0.1,0c-2.9,0.9-64.3,27.8-106.6,49.4c-19,9.7-30.5,21.7-30.5,34.3
				c0,41.8,0,99.6,0,99.6h219.2h0.2h0.1h0h0.1h0.2h0.3h0.3h0.2h0.1h0h0.1h0.2h219.2c0,0,0-57.8,0-99.6
				C460.8,369.1,449.3,357,430.3,347.4z"/>
		</g>
	</g>
</g>
</svg>
