<?xml version="1.0" encoding="utf-8"?>
<!-- Generator: Adobe Illustrator 23.1.0, SVG Export Plug-In . SVG Version: 6.00 Build 0)  -->
<svg version="1.1" id="Слой_1" xmlns="http://www.w3.org/2000/svg" xmlns:xlink="http://www.w3.org/1999/xlink" x="0px" y="0px"
	 viewBox="0 0 243.8 225" style="enable-background:new 0 0 243.8 225;" xml:space="preserve">
<style type="text/css">
	.st0{fill:#bbb;}
</style>
<g>
	<path class="st0" d="M242.6,27c0.8,1.6,1.2,2.7,1.2,3.5c0,0.8-0.4,2-1.2,3.5L96.7,221.5c-2.3,2.3-4.1,3.5-5.3,3.5
		c-2,0-3.9-1-5.9-2.9L2.9,142.4l-1.8-1.8c-0.8-1.6-1.2-2.7-1.2-3.5c0-0.4,0.4-1.4,1.2-2.9l1.2-1.2c10.9-11.7,19.5-20.7,25.8-27
		c2.3-2.3,3.9-3.5,4.7-3.5c1.6,0,3.5,1.2,5.9,3.5l46.9,45.7L202.7,1.2c0.8-0.8,2-1.2,3.5-1.2c1.2,0,2.5,0.4,4.1,1.2L242.6,27z"/>
</g>
</svg>
