<?xml version="1.0" encoding="utf-8"?>
<!-- Generator: Adobe Illustrator 23.0.0, SVG Export Plug-In . SVG Version: 6.00 Build 0)  -->
<svg version="1.1" id="Layer_1" xmlns="http://www.w3.org/2000/svg" xmlns:xlink="http://www.w3.org/1999/xlink" x="0px" y="0px"
	 viewBox="0 0 220 222" style="enable-background:new 0 0 220 222;" xml:space="preserve">
<style type="text/css">
	.st0{fill:#009BE3;}
</style>
<g>
	<path class="st0" d="M214,109.3c0,28.6-10.2,53.1-30.5,73.5c-20.3,20.3-44.8,30.5-73.5,30.5c-28.6,0-53.1-10.2-73.5-30.5
		C16.2,162.4,6,137.9,6,109.3c0-28.6,10.2-53.1,30.5-73.5C56.9,15.4,81.4,5.2,110,5.2c28.6,0,53.1,10.2,73.5,30.5
		C203.8,56.1,214,80.6,214,109.3z M193,109.3c0-22.8-8.1-42.3-24.2-58.6c-16.1-16.3-35.7-24.4-58.8-24.4c-23.1,0-42.7,8.1-58.8,24.4
		C35,66.9,27,86.5,27,109.3c0,22.8,8.1,42.3,24.2,58.6c16.1,16.3,35.7,24.4,58.8,24.4c23.1,0,42.7-8.1,58.8-24.4
		C184.9,151.6,193,132,193,109.3z M120.3,57.5v62l-54.7,32.7l-7.8-12.7l46.9-27.8V57.5H120.3z"/>
</g>
</svg>
