<?xml version="1.0" encoding="utf-8"?>
<!-- Generator: Adobe Illustrator 23.0.0, SVG Export Plug-In . SVG Version: 6.00 Build 0)  -->
<svg version="1.1" id="Capa_1" xmlns="http://www.w3.org/2000/svg" xmlns:xlink="http://www.w3.org/1999/xlink" x="0px" y="0px"
	 viewBox="0 0 496 496" style="enable-background:new 0 0 496 496;" xml:space="preserve">
<style type="text/css">
	.st0{fill:#008CBA;}
</style>
<g>
	<g>
		<g>
			<path class="st0" d="M496,160c0-70.6-57.4-128-128-128c-30.6,0-58.8,10.8-80.8,28.9l-42.3-42.3l-27.2,27.2
				c-5.6-2.8-11.5-5.3-17.6-7.3V0h-80v38.5c-6.1,2-12,4.4-17.6,7.3L75.2,18.6L18.6,75.1l27.2,27.2c-2.8,5.6-5.3,11.5-7.3,17.6H0v80
				h38.5c2,6.1,4.4,12,7.3,17.6l-27.2,27.2l56.6,56.6l27.2-27.2c5.6,2.8,11.5,5.3,17.6,7.3V320h80v-38.5c6.1-2,12-4.4,17.6-7.3
				l27.2,27.2l42.3-42.3c12,9.8,25.8,17.4,40.8,22.4V304h-16v16h16v16h-16v16h16v104c0,22.1,17.9,40,40,40s40-17.9,40-40V352h16v-16
				h-16v-16h16v-16h-16v-22.5C459,264.7,496,216.6,496,160z M244.9,278.8l-24.4-24.4l-5.3,3c-7.8,4.5-16.4,8-25.3,10.4l-5.9,1.6V304
				h-48v-34.5l-5.9-1.6c-8.9-2.5-17.4-6-25.3-10.4l-5.3-3l-24.4,24.4l-34-34l24.4-24.4l-3-5.3c-4.5-7.8-8-16.4-10.4-25.3l-1.6-5.9
				H16v-48h34.5l1.6-5.9c2.5-8.9,6-17.4,10.4-25.3l3-5.3L41.2,75.2l33.9-33.9l24.4,24.4l5.3-3c7.8-4.5,16.4-8,25.3-10.4l5.9-1.6V16
				h48v34.5l5.9,1.6c8.9,2.5,17.4,6,25.3,10.4l5.3,3l24.4-24.4l30.6,30.6c-21.9,23-35.5,54-35.5,88.2s13.6,65.2,35.5,88.2
				L244.9,278.8z M392,456c0,13.2-10.8,24-24,24s-24-10.8-24-24V352h48V456z M392,336h-48v-16h48V336z M392,304h-48v-18.3
				c7.8,1.5,15.8,2.3,24,2.3s16.2-0.8,24-2.3V304z M368,272c-61.8,0-112-50.2-112-112S306.2,48,368,48s112,50.2,112,112
				S429.8,272,368,272z"/>
			<path class="st0" d="M368,80c-44.1,0-80,35.9-80,80s35.9,80,80,80s80-35.9,80-80S412.1,80,368,80z M368,224
				c-35.3,0-64-28.7-64-64s28.7-64,64-64s64,28.7,64,64S403.3,224,368,224z"/>
			<path class="st0" d="M160,96c-35.3,0-64,28.7-64,64s28.7,64,64,64s64-28.7,64-64S195.3,96,160,96z M160,112
				c17.7,0,33.2,9.7,41.5,24h-83C126.8,121.7,142.3,112,160,112z M160,208c-17.7,0-33.2-9.7-41.5-24h83
				C193.2,198.3,177.7,208,160,208z M208,160c0,2.7-0.3,5.4-0.7,8h-94.6c-0.4-2.6-0.7-5.3-0.7-8s0.3-5.4,0.7-8h94.6
				C207.7,154.6,208,157.3,208,160z"/>
			<path class="st0" d="M280,344c-13.2,0-24,10.8-24,24c0,6.1,2.4,11.6,6.1,15.8l-19.6,26.1c-3.3-1.2-6.8-1.9-10.6-1.9
				c-8.1,0-15.4,3.1-21.1,8.1l-30.3-24.2c2.1-4.9,3.3-10.2,3.3-15.9c0-22.1-17.9-40-40-40s-40,17.9-40,40c0,5.6,1.2,11,3.3,15.9
				l-26.5,21.2C72.2,405,60.7,400,48,400c-26.5,0-48,21.5-48,48s21.5,48,48,48s48-21.5,48-48c0-8-2-15.5-5.5-22.2l26.1-20.8
				c7.2,6.8,16.8,11,27.4,11s20.2-4.2,27.4-11l30.5,24.4c-1.2,3.3-1.9,6.9-1.9,10.6c0,17.6,14.4,32,32,32s32-14.4,32-32
				c0-8.1-3.1-15.5-8.2-21.1l20.4-27.2c1.2,0.2,2.4,0.4,3.7,0.4c13.2,0,24-10.8,24-24S293.2,344,280,344z M48,480
				c-17.6,0-32-14.4-32-32s14.4-32,32-32s32,14.4,32,32S65.6,480,48,480z M144,400c-13.2,0-24-10.8-24-24s10.8-24,24-24
				s24,10.8,24,24S157.2,400,144,400z M232,456c-8.8,0-16-7.2-16-16s7.2-16,16-16s16,7.2,16,16S240.8,456,232,456z M280,376
				c-4.4,0-8-3.6-8-8s3.6-8,8-8s8,3.6,8,8S284.4,376,280,376z"/>
		</g>
	</g>
</g>
</svg>
