<?xml version="1.0" encoding="utf-8"?>
<!-- Generator: Adobe Illustrator 23.0.0, SVG Export Plug-In . SVG Version: 6.00 Build 0)  -->
<svg version="1.1" id="Слой_1" xmlns="http://www.w3.org/2000/svg" xmlns:xlink="http://www.w3.org/1999/xlink" x="0px" y="0px"
	 viewBox="0 0 512 512" style="enable-background:new 0 0 512 512;" xml:space="preserve">
<style type="text/css">
	.st0{fill:#E71F29;}
</style>
<path class="st0" d="M509.9,495.9L456,425.7c-1.7-2.2-4.2-3.6-6.9-3.9c-36.6-3.6-56.1-11.4-71.8-17.6c-13.9-5.5-28.3-11.2-46.8-11.2
	c-28.2,0-49.8,15.1-64.4,32.1v-0.4c8.2-18.8,29.9-48.5,63.6-48.5c14.5,0,25.8,4.5,38.9,9.7c10.9,4.3,24.5,9.8,44.4,13.9
	c5.4,1.1,10.7-2.3,11.8-7.7c1.1-5.4-2.3-10.7-7.7-11.8c-18.2-3.8-30.4-8.7-41.2-13c-13.8-5.5-28-11.1-46.3-11.1
	c-35.1,0-59.9,23.6-73.6,45c-13.8-21.4-38.5-45-73.6-45c-18.4,0-32.6,5.7-46.3,11.1c-15.5,6.2-34.8,13.9-71,17.4
	c-5.5,0.5-9.5,5.4-9,10.9c0.5,5.5,5.4,9.5,10.9,9c39-3.9,60.6-12.5,76.4-18.8c13.1-5.2,24.4-9.7,38.9-9.7
	c33.8,0,55.5,29.7,63.6,48.5v0.4c-14.6-17.1-36.2-32.1-64.4-32.1c-18.5,0-32.9,5.7-46.8,11.2c-15.7,6.2-35.2,14-71.8,17.6
	c-2.7,0.3-5.3,1.7-6.9,3.9L2.1,495.9c-2.3,3-2.7,7.1-1,10.5c1.7,3.4,5.2,5.6,9,5.6h492c3.8,0,7.3-2.2,9-5.6
	C512.7,503,512.3,498.9,509.9,495.9z M330.4,413c14.7,0,26.1,4.6,39.4,9.8c15.4,6.1,36.2,14.4,72.9,18.5l38.8,50.5
	c-66.8-1.4-98.6-14.1-120-22.6c-12.4-4.9-20.6-8.2-31.2-8.2c-18.5,0-31.1,13.9-36.4,25.8c0,0.1-0.1,0.2-0.1,0.3l-2.3,4.8H266v-29.9
	C274.2,443.1,296.2,413,330.4,413z M69.3,441.3c36.7-4.1,57.5-12.4,72.9-18.5c13.2-5.3,24.7-9.8,39.4-9.8
	c34.2,0,56.2,30.1,64.4,49.1V492h-25.6l-2.3-4.8c0-0.1-0.1-0.2-0.1-0.3c-5.3-11.9-17.9-25.8-36.4-25.8c-10.6,0-18.8,3.3-31.2,8.2
	c-21.4,8.5-53.1,21.1-120,22.6L69.3,441.3z M157.8,487.9c11-4.4,17.1-6.8,23.8-6.8c8.6,0,14,6.8,16.5,10.9h-50.9
	C151,490.6,154.5,489.2,157.8,487.9z M313.9,492c2.5-4.1,7.9-10.9,16.5-10.9c6.7,0,12.8,2.4,23.8,6.8c3.3,1.3,6.8,2.7,10.6,4.1
	H313.9z"/>
<path class="st0" d="M444.7,404.7l0.4,0c0.3,0,0.7,0.1,1,0.1c5.1,0,9.4-3.9,9.9-9c0.5-5.5-3.5-10.4-9-10.9l-0.4,0
	c-5.5-0.5-10.4,3.5-10.9,9S439.2,404.2,444.7,404.7z"/>
<path class="st0" d="M222.2,246c-2.6,0.2-5,1.5-6.7,3.4c-1.9,2.2-2.7,5.1-2.3,8c4.1,27,18.5,45.4,39.5,51.8
	c-0.5,3.8-0.9,7.6-1.3,11.4l-5.3,50.8c-0.6,5.5,3.4,10.4,8.9,11c0.4,0,0.7,0.1,1.1,0.1c5.1,0,9.4-3.8,9.9-9l5.3-50.8
	c0.4-3.7,0.8-7.4,1.3-11c46.5-0.6,74.9-30.2,89.1-92.9c1.6-7,3.5-15.1,5.7-24.2c0.7-2.9,0.1-5.9-1.6-8.3c-0.6-0.9-1.4-1.6-2.3-2.3
	l3.9-2.3c2.4-1.3,4.1-3.6,4.7-6.2c17.5-69.5,43.1-162,43.3-162.9c0.9-3.1,0.2-6.4-1.9-8.9c-2-2.5-5.1-3.9-8.4-3.7
	c-3.4,0.2-83.7,6-149.8,113.4c-0.8,1.3-1.6,2.7-2.4,4c-1.2,2-1.7,4.4-1.3,6.7l5,30.8h-17c-4,0-7.6,2.4-9.2,6.1
	c-10.7,25.1-16.9,48.6-18.3,70c-0.2,2.8,0.8,5.6,2.8,7.7L222.2,246z M353.7,166.6L327,181.8c-3.8,2.2-5.8,6.6-4.8,10.9
	s4.7,7.4,9.1,7.7l13.8,0.9c-1.1,4.6-2.1,9-3,12.9c-14.4,63.7-41.1,76.3-66.7,77.3c14.7-88.5,51.8-170.6,108.6-240.3
	C375.4,83.6,363.5,128.1,353.7,166.6z M246.4,175h22.1c2.9,0,5.7-1.3,7.6-3.5c1.9-2.2,2.7-5.2,2.3-8.1l-6.3-38.8
	c0.1-0.2,0.3-0.4,0.4-0.7c31.5-51.3,66.3-76.8,89.9-89.2c5.6-2.9,10.8-5.3,15.6-7.2c-34.4,40-62.6,84.6-84,132.9
	c-18.2,41.2-31.1,84.4-38.4,128.7c-10.9-4.5-16.7-14-19.9-23.1H246c4,0,7.7-2.4,9.2-6.1c1.6-3.7,0.7-8-2.1-10.9l-20.5-21
	C234.2,211.8,238.9,194,246.4,175z"/>
</svg>
