<?xml version="1.0" encoding="utf-8"?>
<!-- Generator: Adobe Illustrator 23.0.0, SVG Export Plug-In . SVG Version: 6.00 Build 0)  -->
<svg version="1.1" id="Capa_1" xmlns="http://www.w3.org/2000/svg" xmlns:xlink="http://www.w3.org/1999/xlink" x="0px" y="0px"
	 viewBox="0 0 512 512" style="enable-background:new 0 0 512 512;" xml:space="preserve">
<style type="text/css">
	.st0{fill:#E71F29;}
</style>
<g>
	<g>
		<path class="st0" d="M501,273.7H359.7l5.3-91.4h80.9l4.1,70.3c0.3,5.2,4.8,9.2,10,8.9c5.2-0.3,9.2-4.8,8.9-10l-9-154.3
			c-0.3-5-4.4-8.9-9.4-8.9h-90c-5,0-9.2,3.9-9.4,8.9l-10.3,176.5h-44v-79.4c0-3.5-1.9-6.6-4.9-8.3c-3-1.7-6.7-1.5-9.6,0.4
			l-123.5,79.5v-71.6c0-3.5-1.9-6.6-4.9-8.3c-3-1.7-6.7-1.5-9.6,0.4L5.9,275.2c-2.7,1.7-4.3,4.7-4.3,8v109.1c0,5.2,4.2,9.5,9.5,9.5
			s9.5-4.2,9.5-9.5V288.3l119.2-76.7v71.6c0,3.5,1.9,6.6,4.9,8.3c3,1.7,6.7,1.5,9.6-0.4l123.5-79.5v71.6c0,5.2,4.2,9.5,9.5,9.5
			h204.3v200.5h-471v-68.7c0-5.2-4.2-9.5-9.5-9.5s-9.5,4.2-9.5,9.5v78.2c0,5.2,4.2,9.5,9.5,9.5H501c5.2,0,9.5-4.2,9.5-9.5V283.1
			C510.4,277.9,506.2,273.7,501,273.7z M369.4,107.2h72.1l1.1,18.3h-74.3L369.4,107.2z M367.2,144.4h76.5l1.1,18.9h-78.7
			L367.2,144.4z"/>
	</g>
</g>
<g>
	<g>
		<path class="st0" d="M190.7,322.8h-140c-5.2,0-9.5,4.2-9.5,9.5v58.6c0,5.2,4.2,9.5,9.5,9.5h140c5.2,0,9.5-4.2,9.5-9.5v-58.6
			C200.2,327.1,196,322.8,190.7,322.8z M84.8,381.5H60.2v-39.7h24.6V381.5z M137.8,381.5h-34v-39.7h34V381.5z M181.3,381.5h-24.6
			v-39.7h24.6V381.5z"/>
	</g>
</g>
<g>
	<g>
		<path class="st0" d="M374.2,322.8h-140c-5.2,0-9.5,4.2-9.5,9.5v58.6c0,5.2,4.2,9.5,9.5,9.5h140c5.2,0,9.5-4.2,9.5-9.5v-58.6
			C383.7,327.1,379.5,322.8,374.2,322.8z M268.3,381.5h-24.6v-39.7h24.6V381.5z M364.8,381.5h-24.6v-22.1c0-5.2-4.2-9.5-9.5-9.5
			s-9.5,4.2-9.5,9.5v22.1h-34v-39.7h77.6L364.8,381.5L364.8,381.5z"/>
	</g>
</g>
<g>
	<g>
		<path class="st0" d="M413,0h-40.7c-5.2,0-9.5,4.2-9.5,9.5s4.2,9.5,9.5,9.5H413c11,0,19.9,8.9,19.9,19.9S424,58.6,413,58.6H186.5
			c-3.3,0-6.4,1.7-8.1,4.5s-1.8,6.3-0.3,9.3c1.5,2.8,2.2,5.9,2.2,9.1c0,11-8.9,19.9-19.9,19.9H43.2c-11,0-19.9-8.9-19.9-19.9
			s8.9-19.9,19.9-19.9h31.7c3.3,0,6.4-1.7,8.1-4.5s1.8-6.3,0.3-9.3C81.8,45.1,81,42,81,38.8c0-11,8.9-19.9,19.9-19.9h239.3
			c5.2,0,9.5-4.2,9.5-9.5S345.4,0,340.2,0H100.9C79.5,0,62.1,17.4,62.1,38.8c0,1.3,0.1,2.7,0.2,4H43.2c-21.4,0-38.8,17.4-38.8,38.8
			s17.4,38.8,38.8,38.8h117.3c21.4,0,38.8-17.4,38.8-38.8c0-1.3-0.1-2.7-0.2-4h214c21.4,0,38.8-17.4,38.8-38.8
			C451.8,17.4,434.4,0,413,0z"/>
	</g>
</g>
</svg>
