<svg width="430" height="80" xmlns="http://www.w3.org/2000/svg">
 <!-- Created with SVG Editor - http://github.com/mzalive/SVG Editor/ -->

 <g>
  <title>background</title>
  <rect fill="#fff" id="canvas_background" height="82" width="432" y="-1" x="-1"/>
 </g>
 <g>
  <title>Layer 1</title>
  <linearGradient y2="1.000002" x2="0.5" y1="0" x1="0.5" id="svg_5">
   <stop stop-color="#E8352B" offset="0"/>
   <stop stop-color="#E50B14" offset="0.4881"/>
   <stop stop-color="#BB1E25" offset="1"/>
  </linearGradient>
  <g stroke="null" id="svg_21">
   <rect stroke="null" transform="matrix(0.2516391897627346,0,0,0.2516391897627346,-303858.0643959225,-56532.39545465012) " id="svg_7" height="314" width="478" fill="#0098E2" y="224660.432042" x="1208750.226556"/>
   <rect stroke="null" transform="matrix(0.2516391897627346,0,0,0.2516391897627346,-303858.0643959225,-56532.39545465012) " id="svg_8" height="314" width="1202" fill="url(#svg_5)" y="224660.432042" x="1207518.226556"/>
   <g stroke="null" transform="matrix(0.2516391897627346,0,0,0.2516391897627346,-303858.0643959225,-56532.39545465012) " id="svg_9">
    <path stroke="null" id="svg_10" d="m1207565.470226,224732.376224l109.563,0l0,33.038l-67.206,0l0,38.122l14.825,0c26.449,0 44.779,5.272 54.994,15.813c10.212,10.543 15.319,25.838 15.319,45.887c0,15.343 -3.413,27.885 -10.236,37.627c-6.826,9.742 -14.803,15.883 -23.932,18.425c-9.131,2.542 -21.743,3.812 -37.838,3.812l-55.488,0l0,-192.724l-0.001,0zm42.357,104.198l0,55.487l13.177,0c9.444,0 16.363,-2.034 20.755,-6.103c4.393,-4.067 6.59,-11.067 6.59,-21.004c0,-8.607 -1.701,-15.488 -5.101,-20.646c-3.402,-5.155 -10.816,-7.734 -22.244,-7.734l-13.177,0z" fill="#FFFFFF"/>
    <path stroke="null" id="svg_11" d="m1207719.791226,224925.099224l0,-192.723l42.357,0l0,71.16l14.966,0c26.354,0 44.638,5.272 54.852,15.813c10.212,10.543 15.319,25.838 15.319,45.887c0,15.343 -3.413,27.885 -10.236,37.627c-6.826,9.742 -14.803,15.883 -23.932,18.425c-9.131,2.542 -21.743,3.812 -37.838,3.812l-55.488,0l0,-0.001zm42.357,-31.203l13.131,0c6.212,0 11.059,-0.658 14.542,-1.98c3.481,-1.319 6.495,-4.221 9.036,-8.703c2.541,-4.482 3.812,-10.309 3.812,-17.48c0,-8.682 -1.672,-15.712 -5.012,-21.09c-3.342,-5.379 -10.801,-8.068 -22.378,-8.068l-13.131,0l0,57.321zm105.468,-161.52l42.357,0l0,192.723l-42.357,0l0,-192.723z" fill="#FFFFFF"/>
    <path stroke="null" id="svg_12" d="m1207924.798226,224732.376224l120.152,0l0,36.145l-39.392,0l0,156.579l-42.357,0l0,-156.579l-38.404,0l0,-36.145l0.001,0z" fill="#FFFFFF"/>
    <path stroke="null" id="svg_13" d="m1208194.611226,224828.668224c0,66.266 -23.296,99.396 -69.889,99.396c-23.155,0 -40.616,-8.446 -52.381,-25.343c-11.767,-16.895 -17.649,-41.581 -17.649,-74.054c0,-66.17 23.296,-99.256 69.889,-99.256c22.778,0 40.144,8.284 52.099,24.849c11.952,16.568 17.931,41.369 17.931,74.408zm-44.616,0c0,-25.979 -2.025,-43.275 -6.071,-51.888c-4.048,-8.612 -10.497,-12.918 -19.343,-12.918c-8.754,0 -15.156,4.331 -19.202,12.989c-4.048,8.661 -6.071,25.933 -6.071,51.817c0,25.414 1.999,42.593 6,51.533c4,8.944 10.424,13.414 19.272,13.414c8.754,0 15.178,-4.282 19.272,-12.849c4.096,-8.563 6.143,-25.931 6.143,-52.098z" fill="#FFFFFF"/>
    <path stroke="null" id="svg_14" d="m1208224.120226,224732.376224l65.794,0c15.436,0 27.084,1.224 34.944,3.671c7.858,2.449 14.448,7.814 19.767,16.096c5.316,8.284 7.977,18.59 7.977,30.92c0,21.556 -9.177,35.392 -27.532,41.51c21.836,7.719 32.756,23.485 32.756,47.298c0,12.52 -2.965,23.085 -8.895,31.697c-5.93,8.613 -13.25,14.355 -21.955,17.226c-8.707,2.872 -21.062,4.306 -37.062,4.306l-65.794,0l0,-192.724zm40.662,77.795l13.695,0c13.647,0 22.237,-2.447 25.767,-7.342c3.53,-4.893 5.295,-10.495 5.295,-16.802c0,-5.835 -1.765,-11.035 -5.295,-15.602c-3.53,-4.564 -11.083,-6.848 -22.661,-6.848l-16.802,0l0,46.594l0.001,0zm0,81.89l20.755,0c19.484,0 29.226,-8.4 29.226,-25.202c0,-9.345 -2.424,-15.928 -7.271,-19.751c-4.849,-3.821 -12.167,-5.733 -21.955,-5.733l-20.755,0l0,50.686z" fill="#FFFFFF"/>
    <path stroke="null" id="svg_15" d="m1208386.629226,224732.376224l42.356,0l0,80.403l46.817,-80.403l42.838,0l-48.395,70.877l52.489,121.846l-43.815,0l-33.914,-88.727l-16.021,23.215l0,65.512l-42.356,0l0,-192.723l0.001,0z" fill="#FFFFFF"/>
    <path stroke="null" id="svg_16" d="m1208581.611226,224905.334224l0,19.766l-42.356,0l0,-192.724l42.356,0l0,108.151l6.354,-11.719l43.063,-75.113l0,-21.319l42.357,0l0,192.723l-42.357,0l0,-99.82l0.142,-7.625l-6.777,12.707l-42.782,74.973z" fill="#FFFFFF"/>
   </g>
   <g stroke="null" transform="matrix(0.2516391897627346,0,0,0.2516391897627346,-303858.0643959225,-56532.39545465012) " id="svg_17">
    <path stroke="null" id="svg_18" d="m1208803.481226,224878.799224l39.393,0l0,42.64l-39.393,0l0,-42.64z" fill="#FFFFFF"/>
    <path stroke="null" id="svg_19" d="m1208878.312226,224728.715224l55.487,0c16.848,0 29.908,1.412 39.18,4.235c9.271,2.824 17.061,9.202 23.367,19.132c6.305,9.932 9.46,22.237 9.46,36.921c0,14.119 -2.542,25.791 -7.624,35.015c-5.083,9.226 -12.12,15.884 -21.107,19.979c-8.99,4.095 -22.803,6.142 -41.439,6.142l-14.967,0l0,71.3l-42.356,0l0,-192.724l-0.001,0zm42.356,31.203l0,57.182l13.131,0c11.578,0 19.037,-2.689 22.379,-8.067c3.34,-5.379 5.012,-12.361 5.012,-20.947c0,-7.267 -1.295,-13.14 -3.883,-17.622c-2.59,-4.483 -5.601,-7.359 -9.035,-8.635c-3.438,-1.272 -8.26,-1.91 -14.473,-1.91l-13.131,0l0,-0.001z" fill="#FFFFFF"/>
    <path stroke="null" id="svg_20" d="m1209083.742226,224903.649224c-23.814,-3.858 -40.733,-12.989 -50.758,-27.391s-15.037,-31.531 -15.037,-51.393c0,-20.989 5.529,-38.475 16.59,-52.452c11.06,-13.978 27.462,-22.754 49.205,-26.332l0,-23.155l36.145,0l0,23.297c15.719,2.166 28.613,7.39 38.686,15.672c10.071,8.283 17.106,17.909 21.108,28.873c3.999,10.967 6,22.332 6,34.098c0,44.428 -21.933,70.595 -65.794,78.501l0,23.72l-36.145,0l0,-23.438zm0,-124.812c-16.567,6.213 -24.85,21.979 -24.85,47.299c0,23.532 8.282,38.498 24.85,44.898l0,-92.197zm36.145,92.198c16.565,-6.306 24.85,-22.118 24.85,-47.44c0,-23.438 -8.284,-38.354 -24.85,-44.757l0,92.197z" fill="#FFFFFF"/>
   </g>
  </g>
 </g>
</svg>