<?xml version="1.0" encoding="utf-8"?>
<!-- Generator: Adobe Illustrator 23.0.0, SVG Export Plug-In . SVG Version: 6.00 Build 0)  -->
<svg version="1.1" id="Capa_1" xmlns="http://www.w3.org/2000/svg" xmlns:xlink="http://www.w3.org/1999/xlink" x="0px" y="0px"
	 viewBox="0 0 230.2 230.2" style="enable-background:new 0 0 230.2 230.2;" xml:space="preserve">
<style type="text/css">
	.st0{fill:url(#SVGID_1_);}
	.st1{fill:url(#SVGID_2_);}
	.st2{fill:url(#SVGID_3_);}
	.st3{fill:url(#SVGID_4_);}
</style>
<g>
	<linearGradient id="SVGID_1_" gradientUnits="userSpaceOnUse" x1="195.0493" y1="48.806" x2="195.0493" y2="182.004">
		<stop  offset="0" style="stop-color:#22B4E9"/>
		<stop  offset="1" style="stop-color:#0098E1"/>
	</linearGradient>
	<path class="st0" d="M230,49.6c0-0.3,0.2-0.5,0.2-0.8l-70.2,67.7l70.2,65.5c0-0.5-0.1-0.9-0.1-1.4L230,49.6L230,49.6z"/>
	<linearGradient id="SVGID_2_" gradientUnits="userSpaceOnUse" x1="116.534" y1="126.901" x2="116.534" y2="197.085">
		<stop  offset="0" style="stop-color:#22B4E9"/>
		<stop  offset="1" style="stop-color:#0098E1"/>
	</linearGradient>
	<path class="st1" d="M149.2,126.9l-28.7,27.6c-1.5,1.4-3.3,2.1-5.2,2.1c-1.8,0-3.7-0.7-5.1-2l-28.6-26.6L11,196
		c1.7,0.6,3.6,1.1,5.5,1.1h197.7c2.9,0,5.6-0.9,7.9-2.2L149.2,126.9z"/>
	<linearGradient id="SVGID_3_" gradientUnits="userSpaceOnUse" x1="114.2885" y1="33.085" x2="114.2885" y2="138.757">
		<stop  offset="0" style="stop-color:#22B4E9"/>
		<stop  offset="1" style="stop-color:#0098E1"/>
	</linearGradient>
	<path class="st2" d="M115.3,138.8L222.4,35.5c-2.4-1.4-5.3-2.4-8.3-2.4H16.5c-3.9,0-7.6,1.5-10.4,3.9L115.3,138.8z"/>
	<linearGradient id="SVGID_4_" gradientUnits="userSpaceOnUse" x1="35.2225" y1="52.1" x2="35.2225" y2="184.84">
		<stop  offset="0" style="stop-color:#22B4E9"/>
		<stop  offset="1" style="stop-color:#0098E1"/>
	</linearGradient>
	<path class="st3" d="M0,52.1v128.5c0,1.5,0.3,2.9,0.7,4.3l69.7-67.2L0,52.1z"/>
</g>
</svg>
