<?xml version="1.0" encoding="utf-8"?>
<!-- Generator: Adobe Illustrator 23.0.0, SVG Export Plug-In . SVG Version: 6.00 Build 0)  -->
<svg version="1.1" id="Слой_1" xmlns="http://www.w3.org/2000/svg" xmlns:xlink="http://www.w3.org/1999/xlink" x="0px" y="0px"
	 viewBox="0 0 512 512" style="enable-background:new 0 0 512 512;" xml:space="preserve">
<style type="text/css">
	.st0{fill:#E71F29;}
</style>
<g id="Page-1">
	<g transform="translate(-1)">
		<path id="Shape" class="st0" d="M331.8,343.5c39.1-30.7,61.8-77.6,61.7-127.3V76.4c0-2.8-1.4-5.5-3.8-7.1
			C339,35,260.4,34.2,257,34.1c-3.3,0-81.9,0.8-132.8,35.2c-2.4,1.6-3.8,4.2-3.8,7.1v139.9c0,49.8,22.9,96.9,62.1,127.6l69.1,56.4
			c3.1,2.6,7.6,2.6,10.8,0L331.8,343.5z M193.3,330.5l-0.1-0.1c-35.1-27.5-55.7-69.6-55.6-114.2V81C184.3,52,256.4,51.2,257,51.2
			c0.7,0,72.8,0.8,119.5,29.8v135.2c0.1,44.5-20.3,86.5-55.3,114L257,382.6L193.3,330.5z"/>
		<path class="st0" d="M416.3,282.4c7.6-21.2,11.4-43.6,11.4-66.2V67.7c0.1-7.7-3.3-15-9.3-19.8C358.4,0.5,261.1,0,257,0
			c-4.1,0-101.4,0.5-161.3,47.9c-6,4.8-9.4,12.1-9.3,19.8v148.5c0,22.6,3.8,45,11.4,66.2L6,374.2c-4.4,4.4-6,10.7-4.4,16.6
			c1.6,5.9,6.4,10.5,12.3,12l76.9,19.2l19.3,77c1.5,6,6.1,10.7,12,12.3c1.5,0.4,3.1,0.6,4.6,0.6c4.5,0,8.8-1.8,12-5l85.3-85.3
			l22.3,18.2c6.2,5,15.1,5,21.3,0l22.3-18.2l85.3,85.3c3.2,3.2,7.5,5,12,5c1.6,0,3.1-0.2,4.6-0.6c6-1.6,10.6-6.3,12-12.3l19.2-76.9
			l77-19.3c6-1.5,10.7-6.1,12.3-12c1.6-5.9,0-12.3-4.4-16.6L416.3,282.4z M104.8,299.5c9.9,21.1,23.4,40.2,40.1,56.5l-49.6,49.6
			c-0.1,0-0.1-0.1-0.2-0.1l-77-19.3L104.8,299.5z M126.7,494.9l-19.3-77l-0.1-0.2l50.3-50.3c1.1,0.9,2.2,1.9,3.3,2.8l49.9,40.7
			L126.7,494.9z M257.1,426.7l-85.5-69.8c-2.9-2.3-5.6-4.6-8.3-7l-0.1-0.1l-0.1-0.1c-20.9-18.7-37.1-42-47.4-68.1
			c-0.1-0.2-0.1-0.4-0.2-0.6c-8-20.7-12.1-42.7-12.1-64.8V67.7c-0.1-2.5,1-4.8,2.9-6.4C161.5,17.7,256.1,17.1,257,17.1
			c0.9,0,95.4,0.5,150.7,44.2c1.9,1.6,2.9,3.9,2.9,6.4v148.5c0,22.2-4.1,44.2-12.1,64.8c-0.1,0.2-0.1,0.3-0.2,0.5
			c-10.2,26.1-26.5,49.5-47.4,68.2l-0.1,0.1l0,0.1c-2.7,2.4-5.5,4.8-8.5,7.1l-57.5,47.1c-0.1,0.1-0.2,0.1-0.3,0.2l-0.1,0.1
			L257.1,426.7z M387.3,495l-84-84l49.8-40.6c1.2-0.9,2.3-1.9,3.4-2.8l50.3,50.3c0,0.1-0.1,0.1-0.1,0.2L387.3,495z M418.9,405.6
			l-0.2,0.1l-49.6-49.6c16.6-16.3,30.2-35.5,40.1-56.5l86.7,86.8L418.9,405.6z"/>
		<path class="st0" d="M331.4,263l-9.8-57.4l41.5-40.7c4.3-4.2,5.9-10.6,4-16.3c-1.9-5.8-6.8-10-12.8-10.8l-57.4-8.4l-25.7-52.2
			c-2.7-5.4-8.2-8.9-14.3-8.9s-11.6,3.4-14.3,8.9l-25.7,52.2l-57.4,8.4c-6,0.9-11,5.1-12.8,10.8c-1.9,5.8-0.3,12.1,4,16.3l41.5,40.7
			l-9.8,57.4c-1.1,6,1.4,12,6.3,15.6c4.9,3.6,11.4,4,16.8,1.2l51.3-27.1l51.3,27.1c5.4,2.8,11.9,2.4,16.8-1.2
			C330,275,332.4,268.9,331.4,263z M304.7,207.9l9.5,55.7l-49.8-26.3c-4.6-2.4-10.2-2.4-14.8,0l-49.8,26.3l9.5-55.7
			c0.9-5.2-0.8-10.4-4.6-14.1l-40.3-39.5l55.7-8.1c5.2-0.8,9.7-4,12-8.7L257,86.8l24.9,50.6c2.3,4.7,6.8,8,12,8.7l55.7,8.1
			l-40.3,39.5C305.5,197.4,303.8,202.7,304.7,207.9L304.7,207.9z"/>
	</g>
</g>
</svg>
