<?xml version="1.0" encoding="utf-8"?>
<!-- Generator: Adobe Illustrator 23.0.0, SVG Export Plug-In . SVG Version: 6.00 Build 0)  -->
<svg version="1.1" id="Layer_1" xmlns="http://www.w3.org/2000/svg" xmlns:xlink="http://www.w3.org/1999/xlink" x="0px" y="0px"
	 viewBox="0 0 128 128" style="enable-background:new 0 0 128 128;" xml:space="preserve">
<style type="text/css">
	.st0{fill:#0098E1;}
</style>
<g>
	<g>
		<g>
			<g>
				<path class="st0" d="M65.5,116C65.5,116,65.5,116,65.5,116c-7.3,0-14.4-1.5-21.1-4.5C17.9,99.7,5.8,68.3,17.5,41.6
					C25.9,22.4,44.8,10,65.6,10c7.3,0,14.4,1.5,21.1,4.5c26.5,11.8,38.6,43.1,26.9,69.9C105.2,103.6,86.3,116,65.5,116z M65.6,14
					c-19.3,0-36.7,11.5-44.5,29.2C10.4,67.9,21.5,96.9,46,107.8c6.2,2.8,12.8,4.2,19.5,4.2c19.3,0,36.7-11.5,44.5-29.2
					C120.7,58,109.6,29,85.1,18.1C78.9,15.4,72.4,14,65.6,14z"/>
			</g>
		</g>
		<g>
			<g>
				<path class="st0" d="M78,54.3l-3.4-2.1c-4.6-2.8-6.1-8.9-3.4-13.6l3.4,2c-1.7,2.8-0.8,6.4,2,8.1l3.4,2.1L78,54.3z"/>
			</g>
			<g>
				<g>
					<path class="st0" d="M105.5,51.1l-4.3-2.6c-4.6-2.8-6.1-8.9-3.4-13.6l4.2-7.1l3.4,2l-4.2,7.1c-1.7,2.8-0.8,6.4,2,8.1l4.3,2.6
						L105.5,51.1z"/>
				</g>
			</g>
			<g>
				<rect x="88.3" y="89" transform="matrix(0.5186 -0.855 0.855 0.5186 -39.4269 123.8663)" class="st0" width="4" height="15.9"/>
			</g>
			<g>
				<path class="st0" d="M72.7,88.6l-23.1-14c-6-3.7-8-11.6-4.4-17.6l3.4,2c-2.5,4.2-1.2,9.6,3,12.2l23.1,14L72.7,88.6z"/>
			</g>
			<g>
				<g>
					<path class="st0" d="M83.6,70.2l-23.1-14c-2-1.2-4.3-1.6-6.6-1c-2.3,0.6-4.2,2-5.4,4l-3.4-2c1.8-3,4.6-5,7.9-5.9
						c3.3-0.8,6.7-0.3,9.6,1.5l23.1,14L83.6,70.2z"/>
				</g>
			</g>
			<g>
				<rect x="84.7" y="47.6" transform="matrix(0.5187 -0.855 0.855 0.5187 -7.091 101.6113)" class="st0" width="4" height="18.9"/>
			</g>
			<g>
				<path class="st0" d="M100.9,78.7l-0.6-4c1.5-0.2,2.8-1.1,3.6-2.4l3.4,2C105.9,76.7,103.6,78.3,100.9,78.7z"/>
			</g>
			<g>
				
					<rect x="77.8" y="54.9" transform="matrix(0.5189 -0.8548 0.8548 0.5189 -17.558 99.7496)" class="st0" width="4" height="21.1"/>
			</g>
		</g>
		<g>
			<g>
				<path class="st0" d="M58.9,34.6l-3.4-2c0.8-1.4,1.4-2.9,1.6-4.5l4,0.6C60.7,30.7,60,32.8,58.9,34.6z"/>
			</g>
			<g>
				<g>
					<path class="st0" d="M45.3,42.2c-2.9,0-5.7-0.8-8.2-2.3l-12.6-7.6l2.1-3.4l12.6,7.6c2.7,1.7,6,2.1,9.1,1.4
						c3.1-0.8,5.8-2.7,7.4-5.5l3.4,2c-2.2,3.7-5.7,6.3-9.9,7.4C47.9,42,46.6,42.2,45.3,42.2z"/>
				</g>
			</g>
		</g>
		<g>
			<g>
				<path class="st0" d="M83,25.4c-2.3,0-4.6-0.6-6.7-1.9l-15.1-9.2l2.1-3.4l15.1,9.2c2.1,1.2,4.5,1.6,6.8,1
					c2.3-0.6,4.3-2.1,5.6-4.1l3.4,2c-1.8,3-4.7,5.1-8,6C85.1,25.2,84,25.4,83,25.4z"/>
			</g>
		</g>
		<g>
			<g>
				<path class="st0" d="M42.2,83.9l-3.4-2c1.3-2.2,0.6-5-1.5-6.3L14,61.7l2.1-3.4l23.2,13.9C43.3,74.6,44.6,79.9,42.2,83.9z"/>
			</g>
			<g>
				<g>
					<path class="st0" d="M34.9,88c-1.5,0-3-0.4-4.4-1.2l-5.9-3.6l2.1-3.4l5.9,3.6c1,0.6,2.2,0.8,3.4,0.5c1.2-0.3,2.2-1,2.8-2.1
						l3.4,2c-1.2,2-3,3.4-5.3,3.9C36.3,87.9,35.6,88,34.9,88z"/>
				</g>
			</g>
			<g>
				<g>
					
						<rect x="19.8" y="73.8" transform="matrix(0.531 -0.8474 0.8474 0.531 -56.7373 55.5642)" class="st0" width="4" height="10.5"/>
				</g>
			</g>
		</g>
	</g>
	<g>
		<g>
			<g>
				<path class="st0" d="M119.9,12.3c-0.3-0.5-0.6-0.9-1-1.3l2.9-2.7c0.5,0.6,1,1.2,1.4,1.8L119.9,12.3z"/>
			</g>
			<g>
				<path class="st0" d="M16.8,126.3l-0.1-4c1.2,0,2.4-0.1,3.7-0.3l0.6,4C19.6,126.2,18.2,126.3,16.8,126.3z M12.5,126.1
					c-1.6-0.2-3-0.7-4.3-1.2l1.6-3.7c1,0.4,2.1,0.7,3.3,0.9L12.5,126.1z M25.1,125.2l-0.9-3.9c1.2-0.3,2.4-0.6,3.7-1l1.2,3.8
					C27.7,124.5,26.4,124.9,25.1,125.2z M32.9,122.7l-1.4-3.7c1.2-0.4,2.4-0.9,3.6-1.5l1.6,3.7C35.4,121.8,34.1,122.3,32.9,122.7z
					 M4.4,122.3c-0.2-0.2-0.3-0.3-0.5-0.5c-0.9-0.9-1.7-2-2.2-3.3l3.6-1.8c0.4,0.9,0.9,1.6,1.6,2.3c0.1,0.1,0.2,0.2,0.3,0.3
					L4.4,122.3z M40.3,119.5l-1.7-3.6c1.1-0.6,2.3-1.1,3.5-1.8l1.9,3.5C42.7,118.3,41.5,118.9,40.3,119.5z M47.4,115.8l-2-3.5
					c1.1-0.6,2.2-1.3,3.4-2l2.1,3.4C49.7,114.4,48.5,115.1,47.4,115.8z M0.3,114.3c-0.2-1.2-0.3-2.4-0.3-3.8c0-0.2,0-0.4,0-0.6
					l4,0.1c0,0.2,0,0.3,0,0.5c0,1.1,0.1,2.1,0.2,3.1L0.3,114.3z M54.2,111.6l-2.2-3.4c1.1-0.7,2.2-1.4,3.3-2.2l2.2,3.3
					C56.5,110.1,55.4,110.9,54.2,111.6z M60.9,107.1l-2.3-3.3c1-0.7,2.1-1.5,3.2-2.3l2.4,3.2C63,105.5,61.9,106.3,60.9,107.1z
					 M4.3,106.4l-4-0.6c0.2-1.3,0.5-2.7,0.9-4.1l3.9,1C4.8,104,4.5,105.2,4.3,106.4z M67.3,102.3l-2.5-3.2c1-0.8,2-1.6,3.1-2.4
					l2.5,3.1C69.4,100.7,68.3,101.5,67.3,102.3z M6.2,99l-3.8-1.3c0.4-1.2,0.9-2.5,1.4-3.8l3.7,1.5C7.1,96.7,6.6,97.9,6.2,99z
					 M73.5,97.3l-2.6-3.1c1-0.8,2-1.7,3-2.6l2.6,3C75.5,95.6,74.5,96.4,73.5,97.3z M79.5,92l-2.7-3c1-0.9,1.9-1.8,2.9-2.7l2.7,2.9
					C81.4,90.2,80.5,91.1,79.5,92z M9.1,91.9l-3.6-1.7C6,89,6.6,87.8,7.3,86.6l3.6,1.8C10.2,89.6,9.6,90.8,9.1,91.9z M85.3,86.5
					l-2.8-2.9c0.9-0.9,1.9-1.8,2.8-2.8l2.8,2.8C87.2,84.7,86.3,85.6,85.3,86.5z M12.7,85l-3.5-2c0.4-0.7,0.8-1.4,1.3-2.2l3.4,2
					C13.5,83.6,13.1,84.3,12.7,85z M90.9,80.9L88,78.1c0.9-1,1.8-1.9,2.7-2.9l2.9,2.7C92.7,78.9,91.8,79.9,90.9,80.9z M96.3,75
					l-3-2.7c0.9-1,1.7-2,2.6-3l3,2.6C98.1,73,97.2,74,96.3,75z M101.5,68.9l-3.1-2.5c0.8-1,1.6-2,2.4-3.1l3.2,2.5
					C103.2,66.8,102.3,67.9,101.5,68.9z M106.4,62.6l-3.2-2.4c0.8-1.1,1.6-2.1,2.3-3.2l3.3,2.3C108,60.4,107.2,61.5,106.4,62.6z
					 M111,56.1l-3.3-2.2c0.7-1.1,1.4-2.2,2.1-3.3l3.4,2.1C112.5,53.8,111.8,54.9,111,56.1z M115.3,49.3l-3.4-2
					c0.7-1.1,1.3-2.3,1.9-3.4l3.5,1.9C116.7,46.9,116,48.1,115.3,49.3z M119.2,42.2l-3.6-1.8c0.6-1.2,1.1-2.4,1.7-3.5l3.7,1.6
					C120.4,39.7,119.8,41,119.2,42.2z M122.5,34.8l-3.7-1.4c0.5-1.2,0.9-2.4,1.3-3.6l3.8,1.2C123.4,32.2,123,33.5,122.5,34.8z
					 M124.9,27l-3.9-0.9c0.3-1.3,0.5-2.5,0.6-3.7l4,0.4C125.4,24.2,125.2,25.5,124.9,27z M121.8,18.8c-0.1-1.3-0.2-2.4-0.5-3.5
					l3.9-1.1c0.4,1.3,0.6,2.8,0.6,4.3L121.8,18.8z"/>
			</g>
			<g>
				<path class="st0" d="M14.9,81.3l-3.4-2.1c0.3-0.6,0.7-1.1,1.1-1.7l3.4,2.1C15.5,80.2,15.2,80.7,14.9,81.3z"/>
			</g>
		</g>
		<g>
			<path class="st0" d="M16.2,126.4c-0.2,0-0.4,0-0.6,0c-5-0.1-8.9-1.6-11.7-4.5l2.9-2.7c2,2.1,4.9,3.2,8.8,3.3c0.2,0,0.4,0,0.6,0
				c15.7,0,41.7-15,65.2-37.6c30.4-29.3,47.6-63,37.5-73.7c-5.6-5.9-19.2-3.8-36.4,5.6l-1.9-3.5c19.2-10.4,34.2-12.2,41.2-4.8
				c11.9,12.6-4.6,47.5-37.6,79.3C59.7,111.2,33.1,126.4,16.2,126.4z"/>
		</g>
		<g>
			<path class="st0" d="M83.7,43.3C59.9,20.4,33.5,5.3,17.9,5.7C14,5.7,11,6.8,9.1,8.9L6.1,6.2c2.7-2.9,6.6-4.4,11.7-4.5
				c16.8-0.4,43.8,14.8,68.6,38.7L83.7,43.3z"/>
		</g>
		<g>
			<g>
				<path class="st0" d="M80.3,113.4c-0.6-0.3-1.2-0.7-1.7-1l2-3.4c0.6,0.3,1.1,0.7,1.7,1L80.3,113.4z"/>
			</g>
			<g>
				<path class="st0" d="M110.9,124.2c-1.3,0-2.7-0.2-4.2-0.4l0.6-4c1.3,0.2,2.5,0.3,3.7,0.4L110.9,124.2z M115.2,124l-0.6-4
					c1.2-0.2,2.3-0.5,3.3-0.9l1.5,3.7C118.2,123.4,116.7,123.8,115.2,124z M102.6,123c-1.3-0.3-2.6-0.7-4-1.1l1.2-3.8
					c1.3,0.4,2.5,0.8,3.7,1.1L102.6,123z M94.8,120.5c-1.2-0.5-2.5-1-3.8-1.6l1.6-3.7c1.2,0.5,2.4,1,3.6,1.5L94.8,120.5z
					 M123.4,120.3l-2.7-3c0.2-0.1,0.3-0.3,0.5-0.5c0.6-0.6,1.1-1.3,1.5-2.1l3.6,1.8c-0.6,1.1-1.3,2.2-2.1,3.1
					C123.9,119.9,123.6,120.1,123.4,120.3z M87.4,117.2c-1.2-0.6-2.4-1.2-3.6-1.8l1.9-3.5c1.2,0.6,2.3,1.2,3.5,1.8L87.4,117.2z
					 M127.7,112.3l-3.9-0.7c0.2-1,0.3-2.1,0.3-3.2l0-0.3l4-0.1l0,0.4C128,109.8,127.9,111.1,127.7,112.3z M123.7,104.4
					c-0.2-1.2-0.4-2.4-0.8-3.7l3.9-1c0.4,1.4,0.6,2.8,0.8,4.1L123.7,104.4z M121.8,97c-0.4-1.2-0.8-2.4-1.3-3.6l3.7-1.5
					c0.5,1.3,1,2.6,1.4,3.8L121.8,97z M118.9,89.8c-0.5-1.1-1.1-2.3-1.7-3.5l3.6-1.8c0.6,1.2,1.2,2.5,1.8,3.6L118.9,89.8z
					 M115.4,82.9c-0.6-1.1-1.3-2.2-2-3.4l3.4-2.1c0.7,1.2,1.4,2.3,2,3.5L115.4,82.9z M111.3,76.2c-0.7-1.1-1.4-2.2-2.2-3.3l3.3-2.3
					c0.8,1.1,1.5,2.2,2.2,3.4L111.3,76.2z M106.9,69.7c-0.8-1-1.5-2.1-2.3-3.2l3.2-2.4c0.8,1.1,1.6,2.2,2.4,3.2L106.9,69.7z
					 M102.1,63.5c-0.8-1-1.6-2-2.5-3.1l3.1-2.6c0.9,1,1.7,2.1,2.5,3.1L102.1,63.5z M97.1,57.4c-0.8-1-1.7-2-2.6-3l3-2.7
					c0.9,1,1.8,2,2.7,3L97.1,57.4z M91.8,51.6c-0.9-1-1.8-1.9-2.7-2.9l2.9-2.8c0.9,1,1.9,1.9,2.8,2.9L91.8,51.6z M86.3,45.9
					c-0.9-0.9-1.8-1.8-2.7-2.6l-0.1-0.1l2.8-2.9l0.1,0.1c0.9,0.9,1.8,1.8,2.8,2.7L86.3,45.9z M80.7,40.5c-1-0.9-1.9-1.8-2.9-2.7
					l2.7-3c1,0.9,2,1.8,3,2.7L80.7,40.5z M74.8,35.2c-1-0.9-2-1.7-3-2.5l2.6-3.1c1,0.8,2,1.7,3.1,2.6L74.8,35.2z M68.7,30.2
					c-1-0.8-2.1-1.6-3.1-2.4l2.4-3.2c1.1,0.8,2.1,1.6,3.2,2.5L68.7,30.2z M62.5,25.4c-1.1-0.8-2.1-1.5-3.2-2.3l2.3-3.3
					c1.1,0.8,2.2,1.5,3.3,2.3L62.5,25.4z M56,20.9c-1.1-0.7-2.2-1.4-3.3-2.1l2.1-3.4c1.1,0.7,2.2,1.4,3.4,2.2L56,20.9z M49.4,16.7
					c-1.1-0.7-2.3-1.3-3.4-1.9l1.9-3.5c1.2,0.6,2.3,1.3,3.5,2L49.4,16.7z M42.6,13c-1.2-0.6-2.4-1.2-3.5-1.7l1.7-3.6
					c1.2,0.6,2.4,1.1,3.6,1.8L42.6,13z M35.5,9.7c-1.2-0.5-2.4-1-3.6-1.4l1.3-3.8C34.4,5,35.7,5.5,37,6L35.5,9.7z M28.2,7.2
					c-1.3-0.4-2.5-0.7-3.7-0.9l0.8-3.9c1.3,0.3,2.6,0.6,4,1L28.2,7.2z M11.6,7L9.8,3.4c0.8-0.4,1.7-0.8,2.7-1l1.1,3.8
					C12.9,6.5,12.2,6.7,11.6,7z M20.8,5.8c-1.3-0.1-2.5-0.1-3.7-0.1l-0.2-4c1.3-0.1,2.8-0.1,4.3,0.1L20.8,5.8z"/>
			</g>
			<g>
				<path class="st0" d="M9.1,8.9L6.1,6.2c0.5-0.6,1.1-1.1,1.7-1.5l2.4,3.2C9.8,8.2,9.4,8.5,9.1,8.9z"/>
			</g>
		</g>
		<g>
			<path class="st0" d="M124.1,119.7l-2.9-2.7c10.1-10.6-7.1-44.4-37.5-73.7C59.9,20.4,33.5,5.3,17.9,5.7C14,5.7,11,6.8,9.1,8.9
				c-5.9,6.2-2.4,21.3,9.1,39.5l-3.4,2.1C1.9,30.2-1.3,14,6.1,6.2c2.7-2.9,6.6-4.4,11.7-4.5c16.8-0.4,43.8,14.8,68.6,38.7
				C119.5,72.2,136,107.1,124.1,119.7z"/>
		</g>
	</g>
</g>
</svg>
