<?xml version="1.0" encoding="utf-8"?>
<!-- Generator: Adobe Illustrator 23.0.0, SVG Export Plug-In . SVG Version: 6.00 Build 0)  -->
<svg version="1.1" id="Layer_1" xmlns="http://www.w3.org/2000/svg" xmlns:xlink="http://www.w3.org/1999/xlink" x="0px" y="0px"
	 viewBox="0 0 128 128" style="enable-background:new 0 0 128 128;" xml:space="preserve">
<style type="text/css">
	.st0{fill:#0098E1;}
</style>
<g>
	<g>
		<g>
			<g>
				<g>
					<polygon class="st0" points="18.5,116.5 25.3,92.8 28,90.1 30.9,92.8 28.9,94.9 24.4,110.5 39.6,105.9 41.6,103.9 44.5,106.7 
						41.7,109.5 					"/>
				</g>
				<g>
					<path class="st0" d="M85.7,35.5l12.2,12.4l-54.6,55.8L31,91.3L85.7,35.5 M85.7,29.9L25.5,91.3l17.7,18l60.1-61.4L85.7,29.9
						L85.7,29.9z"/>
				</g>
				<g>
					
						<rect x="26.3" y="66.3" transform="matrix(0.6997 -0.7144 0.7144 0.6997 -29.1073 67.4299)" class="st0" width="78.7" height="4"/>
				</g>
				<g>
					<polygon class="st0" points="100.9,53.3 98,50.5 109.3,38.9 94.4,23.8 83.2,35.2 80.3,32.4 94.4,18 114.9,38.9 					"/>
				</g>
			</g>
		</g>
		<g>
			<path class="st0" d="M116.6,34l-2.9-2.8l3-3.1c0.3-0.3,0.3-0.7,0-0.9L105.9,16c-0.1-0.1-0.3-0.2-0.4-0.2l0,0
				c-0.1,0-0.3,0-0.4,0.2l-3,3.1l-2.9-2.8l3-3.1c0.9-0.9,2-1.4,3.3-1.4c0,0,0,0,0,0c1.2,0,2.4,0.5,3.3,1.4l10.9,11.1
				c1.8,1.8,1.8,4.7,0,6.5L116.6,34z"/>
		</g>
	</g>
	<g>
		<g>
			<polygon class="st0" points="97.1,128 7,128 7,33.9 11,33.9 11,124 93.1,124 93.1,66.3 97.1,66.3 			"/>
		</g>
		<g>
			<polygon class="st0" points="97.1,9.3 93.1,9.3 93.1,4 40.3,4 40.3,0 97.1,0 			"/>
		</g>
		<g>
			<g>
				<path class="st0" d="M33.6,27.5H7.8L33.6,1.1V27.5z M17.3,23.5h12.3V10.9L17.3,23.5z"/>
			</g>
		</g>
	</g>
</g>
</svg>
