<svg xmlns="http://www.w3.org/2000/svg" viewBox="0 0 130 131"><defs><style>.cls-1{fill:#0098e1;}</style></defs><title>Ресурс 1</title><g id="Слой_2" data-name="Слой 2"><g id="Layer_1" data-name="Layer 1"><path class="cls-1" d="M65,131C29.16,131,0,101.62,0,65.5S29.16,0,65,0s65,29.38,65,65.5S100.84,131,65,131ZM65,4C31.37,4,4,31.59,4,65.5S31.37,127,65,127s61-27.59,61-61.5S98.64,4,65,4Z"/><path class="cls-1" d="M65,120.7c-30.21,0-54.78-24.76-54.78-55.2S34.8,10.3,65,10.3s54.78,24.76,54.78,55.2S95.2,120.7,65,120.7ZM65,14.3c-28,0-50.78,23-50.78,51.2S37,116.7,65,116.7s50.78-23,50.78-51.2S93,14.3,65,14.3Z"/><rect class="cls-1" x="63" y="18.05" width="4" height="9.86"/><rect class="cls-1" x="81.17" y="26.67" width="9.84" height="4" transform="translate(18.42 89.12) rotate(-60.19)"/><rect class="cls-1" x="96.63" y="42.24" width="9.8" height="4" transform="matrix(0.86, -0.5, 0.5, 0.86, -8.47, 57.07)"/><rect class="cls-1" x="102.3" y="63.5" width="9.78" height="4"/><rect class="cls-1" x="99.53" y="81.86" width="4" height="9.8" transform="translate(-24.53 130.86) rotate(-59.79)"/><rect class="cls-1" x="84.09" y="97.41" width="4" height="9.84" transform="translate(-39.47 56.33) rotate(-29.8)"/><rect class="cls-1" x="63" y="103.1" width="4" height="9.86"/><rect class="cls-1" x="38.99" y="100.33" width="9.84" height="4" transform="translate(-66.71 89.53) rotate(-60.18)"/><rect class="cls-1" x="23.56" y="84.76" width="9.8" height="4" transform="translate(-39.77 26.08) rotate(-30.19)"/><rect class="cls-1" x="17.92" y="63.5" width="9.78" height="4"/><rect class="cls-1" x="26.46" y="39.34" width="4" height="9.8" transform="translate(-24.09 46.58) rotate(-59.79)"/><rect class="cls-1" x="41.9" y="23.75" width="4" height="9.84" transform="translate(-8.44 25.59) rotate(-29.78)"/><path class="cls-1" d="M65,70.47h0a4.92,4.92,0,0,1-3.3-1.27,5,5,0,0,1-.39-7,4.92,4.92,0,0,1,7-.4A5,5,0,0,1,65,70.47Zm0-5.94a.91.91,0,0,0-.7.32,1,1,0,0,0,.08,1.38.91.91,0,0,0,.62.24h0a.92.92,0,0,0,.7-.32,1,1,0,0,0-.08-1.38A.91.91,0,0,0,65,64.53Z"/><rect class="cls-1" x="61.77" y="49.74" width="30.87" height="4" transform="translate(-12.74 75.16) rotate(-48.42)"/><rect class="cls-1" x="51.64" y="41.66" width="4" height="27.16" transform="translate(-23.31 58.09) rotate(-47.97)"/></g></g></svg>