<?xml version="1.0" encoding="utf-8"?>
<!-- Generator: Adobe Illustrator 23.0.0, SVG Export Plug-In . SVG Version: 6.00 Build 0)  -->
<svg version="1.1" id="Layer_1" xmlns="http://www.w3.org/2000/svg" xmlns:xlink="http://www.w3.org/1999/xlink" x="0px" y="0px"
	 viewBox="0 0 128 128" style="enable-background:new 0 0 128 128;" xml:space="preserve">
<style type="text/css">
	.st0{fill:#0098E1;}
</style>
<g>
	<g>
		<rect x="47.3" y="42.3" class="st0" width="4" height="8.6"/>
	</g>
	<g>
		<polygon class="st0" points="87.7,25.8 83.7,25.8 83.7,4.6 46.7,4.6 46.7,0.6 87.7,0.6 		"/>
	</g>
	<g>
		<path class="st0" d="M64.5,127.4H25.1v-78h39.4V127.4z M29.1,123.4h31.4v-70H29.1V123.4z"/>
	</g>
	<g>
		<g>
			<rect x="32.9" y="68.7" class="st0" width="4.7" height="4"/>
		</g>
		<g>
			<rect x="42.3" y="68.7" class="st0" width="4.8" height="4"/>
		</g>
		<g>
			<rect x="51.8" y="68.7" class="st0" width="4.8" height="4"/>
		</g>
	</g>
	<g>
		<g>
			<rect x="32.9" y="77.7" class="st0" width="4.7" height="4"/>
		</g>
		<g>
			<rect x="42.3" y="77.7" class="st0" width="4.8" height="4"/>
		</g>
		<g>
			<rect x="51.8" y="77.7" class="st0" width="4.8" height="4"/>
		</g>
	</g>
	<g>
		<g>
			<rect x="32.9" y="86.8" class="st0" width="4.7" height="4"/>
		</g>
		<g>
			<rect x="42.3" y="86.8" class="st0" width="4.8" height="4"/>
		</g>
		<g>
			<rect x="51.8" y="86.8" class="st0" width="4.8" height="4"/>
		</g>
	</g>
	<g>
		<g>
			<rect x="32.9" y="95.9" class="st0" width="4.7" height="4"/>
		</g>
		<g>
			<rect x="42.3" y="95.9" class="st0" width="4.8" height="4"/>
		</g>
		<g>
			<rect x="51.8" y="95.9" class="st0" width="4.8" height="4"/>
		</g>
	</g>
	<g>
		<g>
			<rect x="32.9" y="104.9" class="st0" width="4.7" height="4"/>
		</g>
		<g>
			<rect x="42.3" y="104.9" class="st0" width="4.8" height="4"/>
		</g>
		<g>
			<rect x="51.8" y="104.9" class="st0" width="4.8" height="4"/>
		</g>
	</g>
	<g>
		<g>
			<rect x="32.9" y="114" class="st0" width="4.7" height="4"/>
		</g>
		<g>
			<rect x="42.3" y="114" class="st0" width="4.8" height="4"/>
		</g>
		<g>
			<rect x="51.8" y="114" class="st0" width="4.8" height="4"/>
		</g>
	</g>
	<g>
		<g>
			<path class="st0" d="M116,127.4H79.2V41.5H116C116,41.5,116,127.4,116,127.4z M83.2,123.4H112V45.5H83.2V123.4z"/>
		</g>
		<g>
			<path class="st0" d="M111.5,45.5H83.7V33.1h27.8C111.5,33.1,111.5,45.5,111.5,45.5z M87.7,41.5h19.8v-4.4H87.7V41.5z"/>
		</g>
		<g>
			<rect x="88" y="51.3" class="st0" width="19.2" height="4"/>
		</g>
		<g>
			<rect x="88" y="61.5" class="st0" width="19.2" height="4"/>
		</g>
		<g>
			<rect x="88" y="71.7" class="st0" width="19.2" height="4"/>
		</g>
		<g>
			<rect x="88" y="81.9" class="st0" width="19.2" height="4"/>
		</g>
		<g>
			<rect x="88" y="92.1" class="st0" width="19.2" height="4"/>
		</g>
		<g>
			<rect x="88" y="102.3" class="st0" width="19.2" height="4"/>
		</g>
		<g>
			<rect x="88" y="112.6" class="st0" width="19.2" height="4"/>
		</g>
		<g>
			<rect x="95.6" y="21.9" class="st0" width="4" height="12.1"/>
		</g>
	</g>
	<g>
		<rect x="10.3" y="39" class="st0" width="12.8" height="4"/>
	</g>
	<g>
		<rect y="39" class="st0" width="5.2" height="4"/>
	</g>
	<g>
		<rect x="73.4" y="10" class="st0" width="5.2" height="4"/>
	</g>
	<g>
		<rect x="12.9" y="123.4" class="st0" width="115.1" height="4"/>
	</g>
	<g>
		<path class="st0" d="M32.1,34.7c-4.8,0-8.7-3.9-8.7-8.8s3.9-8.8,8.7-8.8c1.9,0,3.8,0.6,5.3,1.8l-2.4,3.2c-0.8-0.6-1.8-1-2.9-1
			c-2.6,0-4.7,2.2-4.7,4.8s2.1,4.8,4.7,4.8c1.5,0,2.8-0.7,3.8-1.9l3.2,2.4C37.3,33.4,34.8,34.7,32.1,34.7z"/>
	</g>
	<g>
		<path class="st0" d="M46.6,36.3c-7.2,0-13.1-5.9-13.1-13.2S39.4,10,46.6,10c5.7,0,10.7,3.7,12.4,9.1l-3.8,1.2
			C54,16.5,50.6,14,46.6,14c-5,0-9.1,4.1-9.1,9.2s4.1,9.2,9.1,9.2c2.6,0,5-1.1,6.7-3l3,2.7C53.9,34.7,50.4,36.3,46.6,36.3z"/>
	</g>
	<g>
		<path class="st0" d="M59.9,34.7c-4.8,0-8.7-3.9-8.7-8.8s3.9-8.8,8.7-8.8c4.8,0,8.7,3.9,8.7,8.8S64.8,34.7,59.9,34.7z M59.9,21.1
			c-2.6,0-4.7,2.2-4.7,4.8s2.1,4.8,4.7,4.8c2.6,0,4.7-2.2,4.7-4.8S62.6,21.1,59.9,21.1z"/>
	</g>
	<g>
		<rect x="26.7" y="59.4" class="st0" width="20.1" height="4"/>
	</g>
</g>
</svg>
