<svg xmlns="http://www.w3.org/2000/svg" viewBox="0 0 130 131.45"><defs><style>.cls-1{fill:#0098e1;}</style></defs><title>Ресурс 1</title><g id="Слой_2" data-name="Слой 2"><g id="Layer_1" data-name="Layer 1"><rect class="cls-1" x="80.37" y="81.52" width="4" height="4"/><path class="cls-1" d="M76.35,85.52h-4v-4h4Zm-8,0h-4v-4h4Zm-8,0h-4v-4h4Zm-8,0h-4v-4h4Zm-8,0h-4v-4h4Zm-8,0h-4v-4h4Zm-8,0h-4v-4h4Zm-8,0h-4v-4h4Zm-8,0H8v-4h4Z"/><rect class="cls-1" y="81.52" width="4" height="4"/><path class="cls-1" d="M4,77.46H0V73.39H4Zm0-8.14H0V65.25H4Zm0-8.14H0V57.12H4Zm0-8.13H0V49H4Zm0-8.14H0V40.84H4Zm0-8.13H0V32.71H4Zm0-8.14H0V24.57H4ZM4,20.5H0V16.44H4Zm0-8.13H0V8.3H4Z"/><rect class="cls-1" y="0.23" width="4" height="4"/><path class="cls-1" d="M76.35,4.23h-4v-4h4Zm-8,0h-4v-4h4Zm-8,0h-4v-4h4Zm-8,0h-4v-4h4Zm-8,0h-4v-4h4Zm-8,0h-4v-4h4Zm-8,0h-4v-4h4Zm-8,0h-4v-4h4Zm-8,0H8v-4h4Z"/><rect class="cls-1" x="80.37" y="0.23" width="4" height="4"/><path class="cls-1" d="M84.37,77.46h-4V73.39h4Zm0-8.14h-4V65.25h4Zm0-8.14h-4V57.12h4Zm0-8.13h-4V49h4Zm0-8.14h-4V40.84h4Zm0-8.13h-4V32.71h4Zm0-8.14h-4V24.57h4Zm0-8.14h-4V16.44h4Zm0-8.13h-4V8.3h4Z"/><path class="cls-1" d="M106.84,108.26H22.93V23.42h83.91Zm-79.91-4h75.91V27.42H26.93Z"/><rect class="cls-1" x="45.86" y="105.67" width="4" height="2"/><path class="cls-1" d="M49.86,101.43h-4V97.2h4Zm0-8.46h-4V88.73h4Zm0-8.47h-4V80.26h4Zm0-8.47h-4V71.79h4Zm0-8.47h-4V63.32h4Zm0-8.47h-4V54.85h4Z"/><rect class="cls-1" x="45.86" y="46.62" width="4" height="4"/><path class="cls-1" d="M99.53,50.62H95.39v-4h4.14Zm-8.28,0H87.11v-4h4.14Zm-8.28,0H78.83v-4H83Zm-8.28,0H70.55v-4h4.14Zm-8.27,0H62.28v-4h4.14Zm-8.28,0H54v-4h4.14Z"/><rect class="cls-1" x="103.67" y="46.62" width="2" height="4"/><polygon class="cls-1" points="129.77 131.45 45.86 131.45 45.86 114.87 49.86 114.87 49.86 127.45 125.77 127.45 125.77 50.62 114.38 50.62 114.38 46.62 129.77 46.62 129.77 131.45"/><polygon class="cls-1" points="130 15.78 126 15.78 126 4 114.38 4 114.38 0 130 0 130 15.78"/><rect class="cls-1" x="107.38" y="8.61" width="24.22" height="4" transform="translate(27.92 88.1) rotate(-45.32)"/><polygon class="cls-1" points="15.62 131.45 0 131.45 0 115.67 4 115.67 4 127.45 15.62 127.45 15.62 131.45"/><rect class="cls-1" x="-1.6" y="118.84" width="24.22" height="4" transform="translate(-82.8 43.34) rotate(-45.32)"/></g></g></svg>