<svg xmlns="http://www.w3.org/2000/svg" viewBox="0 0 96.49 130"><defs><style>.cls-1{fill:#0098e1;}</style></defs><title>Ресурс 1</title><g id="Слой_2" data-name="Слой 2"><g id="Layer_1" data-name="Layer 1"><path class="cls-1" d="M81.7,63h-.54V59h.54a4.34,4.34,0,0,0,4.38-4.29V43.13a4.35,4.35,0,0,0-4.38-4.29h-.54a2.24,2.24,0,0,0-.81.16L79,35.24a6.49,6.49,0,0,1,2.18-.4h.54a8.35,8.35,0,0,1,8.38,8.29V54.67A8.35,8.35,0,0,1,81.7,63Z"/><path class="cls-1" d="M96.49,130h-4V114.22c0-5.86-5.6-10.62-12.48-10.62H16.48C9.6,103.6,4,108.36,4,114.22V130H0V114.22C0,106.16,7.39,99.6,16.48,99.6H80c9.09,0,16.48,6.56,16.48,14.62Z"/><path class="cls-1" d="M48.24,95C29.31,95,13.9,79.77,13.9,61.09V35.6h4V61.09C17.9,77.56,31.51,91,48.24,91s30.35-13.4,30.35-29.87V34.51h4V61.09C82.59,79.77,67.18,95,48.24,95Z"/><path class="cls-1" d="M17.61,63.63H5.45V20.09A13.53,13.53,0,0,1,19.05,6.67h4.11A17,17,0,0,1,36.69,0H93.1V14.06a16.87,16.87,0,0,1-17,16.74H23.77a6.11,6.11,0,0,0-6.16,6Zm-8.16-4h4.16V36.84a10.12,10.12,0,0,1,10.16-10H76.14a12.87,12.87,0,0,0,13-12.74V4H36.69A13,13,0,0,0,25.85,9.78l-.6.89h-6.2a9.52,9.52,0,0,0-9.6,9.42Z"/><path class="cls-1" d="M17.9,63.11l-2.2-.22C12,62.51,5.45,59.44,5.45,54.67V43.13c0-4.77,6.57-7.83,10.24-8.21l2.21-.23Zm-4-23.67c-2.26.83-4.45,2.41-4.45,3.69V54.67c0,1.29,2.19,2.87,4.45,3.7Z"/><rect class="cls-1" x="54.8" y="103.34" width="4" height="14.75"/><rect class="cls-1" x="43.92" y="103.34" width="4" height="14.75"/></g></g></svg>