<svg xmlns="http://www.w3.org/2000/svg" viewBox="0 0 465 465" width="465" height="465">
	<style>
		tspan { white-space:pre }
		.shp0 { fill: #0098e1 } 
	</style>
	<g id="Layer">
		<path id="Layer" fill-rule="evenodd" class="shp0" d="M464.4 21.1L464.4 443.3C464.4 454.9 455 464.4 443.3 464.4L21.1 464.4C9.5 464.4 0 454.9 0 443.3L0 21.1C0 9.5 9.5 0 21.1 0L443.3 0C454.9 0 464.4 9.5 464.4 21.1ZM422.2 422.2L422.2 42.2L42.2 42.2L42.2 422.2L422.2 422.2Z" />
		<path id="Layer" class="shp0" d="M58.7 219.8L84.1 219.8L84.1 364.7C84.1 373.3 91.1 380.3 99.7 380.3L244.6 380.3L244.6 405.7C244.6 407.6 245.7 409.3 247.5 410C249.2 410.7 251.2 410.3 252.6 409L293.7 367.9C295.5 366.1 295.5 363.2 293.7 361.3L252.6 320.2C251.3 318.9 249.3 318.5 247.5 319.2C245.8 319.9 244.6 321.6 244.6 323.5L244.6 349L115.4 349L115.4 219.8L140.8 219.8C142.7 219.8 144.4 218.7 145.1 216.9C145.8 215.2 145.4 213.2 144.1 211.8L103 170.7C101.2 168.9 98.2 168.9 96.4 170.7L55.3 211.8C54 213.1 53.6 215.1 54.3 216.9C55.1 218.6 56.8 219.8 58.7 219.8Z" />
	</g>
</svg>