<?xml version="1.0" encoding="utf-8"?>
<!-- Generator: Adobe Illustrator 23.0.0, SVG Export Plug-In . SVG Version: 6.00 Build 0)  -->
<svg version="1.1" id="icons" xmlns="http://www.w3.org/2000/svg" xmlns:xlink="http://www.w3.org/1999/xlink" x="0px" y="0px"
	 viewBox="0 0 512 512" style="enable-background:new 0 0 512 512;" xml:space="preserve">
<style type="text/css">
	.st0{fill:#008CBA;}
</style>
<g>
	<g>
		<path class="st0" d="M208,208h-79.9c-4.4,0-8-3.6-8-8v-56c0-4.4,3.6-8,8-8H208c4.4,0,8,3.6,8,8v56C216,204.4,212.4,208,208,208z
			 M136.1,192H200v-40h-63.9V192z"/>
	</g>
	<g>
		<path class="st0" d="M248,264h-79.9c-4.4,0-8-3.6-8-8v-56c0-4.4,3.6-8,8-8H248c4.4,0,8,3.6,8,8v56C256,260.4,252.5,264,248,264z
			 M176.1,248H240v-40h-63.9V248z"/>
	</g>
	<g>
		<path class="st0" d="M168,264H88.1c-4.4,0-8-3.6-8-8v-56c0-4.4,3.6-8,8-8H168c4.4,0,8,3.6,8,8v56C176,260.4,172.4,264,168,264z
			 M96.1,248H160v-40H96.1V248z"/>
	</g>
	<g>
		<path class="st0" d="M288.1,320h-79.9c-4.4,0-8-3.6-8-8v-56c0-4.4,3.6-8,8-8h79.9c4.4,0,8,3.6,8,8v56
			C296.1,316.4,292.5,320,288.1,320z M216.2,304h63.9v-40h-63.9L216.2,304z"/>
	</g>
	<g>
		<path class="st0" d="M208,320h-79.9c-4.4,0-8-3.6-8-8v-56c0-4.4,3.6-8,8-8H208c4.4,0,8,3.6,8,8v56C216,316.4,212.4,320,208,320
			L208,320z M136.1,304H200v-40h-63.9V304z"/>
	</g>
	<g>
		<path class="st0" d="M127.9,320H48c-4.4,0-8-3.6-8-8v-56c0-4.4,3.6-8,8-8h79.9c4.4,0,8,3.6,8,8v56
			C135.9,316.4,132.4,320,127.9,320z M56,304h63.9v-40H56V304z"/>
	</g>
	<g>
		<path class="st0" d="M328.1,376h-79.9c-4.4,0-8-3.6-8-8v-56c0-4.4,3.6-8,8-8h79.9c4.4,0,8,3.6,8,8v56
			C336.1,372.4,332.6,376,328.1,376z M256.2,360h63.9v-40h-63.9V360z"/>
	</g>
	<g>
		<path class="st0" d="M504,376H328c-4.4,0-8-3.6-8-8v-56c0-4.4,3.6-8,8-8h176c4.4,0,8,3.6,8,8v56C512,372.4,508.4,376,504,376z
			 M336,360h160v-40H336V360z"/>
	</g>
	<g>
		<path class="st0" d="M464,320H288c-4.4,0-8-3.6-8-8v-56c0-4.4,3.6-8,8-8h176c4.4,0,8,3.6,8,8v56C472,316.4,468.4,320,464,320z
			 M296,304h160v-40H296V304z"/>
	</g>
	<g>
		<path class="st0" d="M424,264H248c-4.4,0-8-3.6-8-8v-56c0-4.4,3.6-8,8-8h176c4.4,0,8,3.6,8,8v56C432,260.4,428.4,264,424,264z
			 M256,248h160v-40H256V248z"/>
	</g>
	<g>
		<path class="st0" d="M384,208H208c-4.4,0-8-3.6-8-8v-56c0-4.4,3.6-8,8-8h176c4.4,0,8,3.6,8,8v56C392,204.4,388.4,208,384,208z
			 M216,192h160v-40H216V192z"/>
	</g>
	<g>
		<path class="st0" d="M248.1,376h-79.9c-4.4,0-8-3.6-8-8v-56c0-4.4,3.6-8,8-8h79.9c4.4,0,8,3.6,8,8v56
			C256.1,372.4,252.5,376,248.1,376z M176.2,360h63.9v-40h-63.9V360z"/>
	</g>
	<g>
		<path class="st0" d="M168,376H88.1c-4.4,0-8-3.6-8-8v-56c0-4.4,3.6-8,8-8H168c4.4,0,8,3.6,8,8v56C176,372.4,172.4,376,168,376z
			 M96.1,360H160v-40H96.1V360z"/>
	</g>
	<g>
		<path class="st0" d="M87.9,376H8c-4.4,0-8-3.6-8-8v-56c0-4.4,3.6-8,8-8h79.9c4.4,0,8,3.6,8,8v56C95.9,372.4,92.3,376,87.9,376z
			 M16,360h63.9v-40H16V360z"/>
	</g>
	<g>
		<path class="st0" d="M384,352h-55c-4.4,0-8-3.6-8-8s3.6-8,8-8h55c4.4,0,8,3.6,8,8S388.4,352,384,352z"/>
	</g>
	<g>
		<path class="st0" d="M464,288h-64c-4.4,0-8-3.6-8-8s3.6-8,8-8h64c4.4,0,8,3.6,8,8S468.4,288,464,288z"/>
	</g>
	<g>
		<path class="st0" d="M303.9,239.9h-55c-4.4,0-8-3.6-8-8s3.6-8,8-8h55c4.4,0,8,3.6,8,8S308.3,239.9,303.9,239.9z"/>
	</g>
	<g>
		<path class="st0" d="M383.9,175.9h-64c-4.4,0-8-3.6-8-8s3.6-8,8-8h64c4.4,0,8,3.6,8,8S388.3,175.9,383.9,175.9z"/>
	</g>
</g>
</svg>
