<?xml version="1.0" encoding="utf-8"?>
<!-- Generator: Adobe Illustrator 23.0.0, SVG Export Plug-In . SVG Version: 6.00 Build 0)  -->
<svg version="1.1" id="Capa_1" xmlns="http://www.w3.org/2000/svg" xmlns:xlink="http://www.w3.org/1999/xlink" x="0px" y="0px"
	 viewBox="0 0 512 512" style="enable-background:new 0 0 512 512;" xml:space="preserve">
<style type="text/css">
	.st0{fill:#008CBA;}
</style>
<g>
	<g>
		<g>
			<g>
				<path class="st0" d="M8,104c-4.4,0-8-3.6-8-8c0-39.7,32.3-72,72-72c4.4,0,8,3.6,8,8s-3.6,8-8,8c-30.9,0-56,25.1-56,56
					C16,100.4,12.4,104,8,104z"/>
			</g>
			<g>
				<path class="st0" d="M224,104H72c-4.4,0-8-3.6-8-8s3.6-8,8-8h152c4.4,0,8,3.6,8,8C232,100.4,228.4,104,224,104z"/>
			</g>
			<g>
				<path class="st0" d="M224,40H72c-4.4,0-8-3.6-8-8s3.6-8,8-8h152c4.4,0,8,3.6,8,8S228.4,40,224,40z"/>
			</g>
			<g>
				<path class="st0" d="M224,104c-4.4,0-8-3.6-8-8s3.6-8,8-8c13.2,0,24-10.8,24-24c0-13.2-10.8-24-24-24c-4.4,0-8-3.6-8-8
					c0-4.4,3.6-8,8-8c22.1,0,40,17.9,40,40S246,104,224,104L224,104z"/>
			</g>
			<g>
				<path class="st0" d="M72,407.9c-39.7,0-72-32.3-72-72c0-4.4,3.6-8,8-8s8,3.6,8,8c0,30.9,25.1,56,56,56c4.4,0,8,3.6,8,8
					S76.4,407.9,72,407.9L72,407.9z"/>
			</g>
			<g>
				<path class="st0" d="M224,343.9H72c-4.4,0-8-3.6-8-8s3.6-8,8-8h152c4.4,0,8,3.6,8,8S228.4,343.9,224,343.9z"/>
			</g>
			<g>
				<path class="st0" d="M224,407.9H72c-4.4,0-8-3.6-8-8s3.6-8,8-8h152c4.4,0,8,3.6,8,8S228.4,407.9,224,407.9z"/>
			</g>
			<g>
				<path class="st0" d="M224,407.9c-4.4,0-8-3.6-8-8s3.6-8,8-8c13.2,0,24-10.8,24-24c0-13.2-10.8-24-24-24c-4.4,0-8-3.6-8-8
					s3.6-8,8-8c22.1,0,40,17.9,40,40C264,390,246,407.9,224,407.9L224,407.9z"/>
			</g>
			<g>
				<path class="st0" d="M8,343.9c-4.4,0-8-3.6-8-8V96c0-4.4,3.6-8,8-8s8,3.6,8,8v239.9C16,340.3,12.4,343.9,8,343.9L8,343.9z"/>
			</g>
			<g>
				<path class="st0" d="M72,343.9c-4.4,0-8-3.6-8-8V96c0-4.4,3.6-8,8-8s8,3.6,8,8v239.9C80,340.3,76.4,343.9,72,343.9z"/>
			</g>
			<g>
				<path class="st0" d="M40,271.9c-4.4,0-8-3.6-8-8V168c0-4.4,3.6-8,8-8s8,3.6,8,8v95.9C48,268.3,44.4,271.9,40,271.9z"/>
			</g>
			<g>
				<path class="st0" d="M224,343.9c-4.4,0-8-3.6-8-8v-79.8c0-4.4,3.6-8,8-8s8,3.6,8,8v79.8C232,340.3,228.4,343.9,224,343.9z"/>
			</g>
			<g>
				<path class="st0" d="M192,343.9c-4.4,0-8-3.6-8-8v-79.8c0-4.4,3.6-8,8-8s8,3.6,8,8v79.8C200,340.3,196.4,343.9,192,343.9z"/>
			</g>
			<g>
				<path class="st0" d="M224,264.1h-32c-4.4,0-8-3.6-8-8c0-4.4,3.6-8,8-8h32c4.4,0,8,3.6,8,8C232,260.6,228.4,264.1,224,264.1
					L224,264.1z"/>
			</g>
			<g>
				<path class="st0" d="M232,320h-48c-4.4,0-8-3.6-8-8s3.6-8,8-8h48c4.4,0,8,3.6,8,8C240,316.4,236.4,320,232,320L232,320z"/>
			</g>
			<g>
				<path class="st0" d="M232,296h-48c-4.4,0-8-3.6-8-8s3.6-8,8-8h48c4.4,0,8,3.6,8,8S236.4,296,232,296L232,296z"/>
			</g>
			<g>
				<path class="st0" d="M224,472c-4.4,0-8-3.6-8-8v-64.1c0-4.4,3.6-8,8-8s8,3.6,8,8V464C232,468.4,228.4,472,224,472z"/>
			</g>
			<g>
				<path class="st0" d="M192,472c-4.4,0-8-3.6-8-8v-64.1c0-4.4,3.6-8,8-8s8,3.6,8,8V464C200,468.4,196.4,472,192,472z"/>
			</g>
			<g>
				<path class="st0" d="M208,488c-13.2,0-24-10.8-24-24c0-4.4,3.6-8,8-8s8,3.6,8,8c0,4.4,3.6,8,8,8c4.4,0,8-3.6,8-8
					c0-4.4,3.6-8,8-8s8,3.6,8,8C232,477.2,221.2,488,208,488L208,488z"/>
			</g>
			<g>
				<path class="st0" d="M192,440h-92c-4.4,0-8-3.6-8-8c0-4.4,3.6-8,8-8h92c4.4,0,8,3.6,8,8C200,436.4,196.4,440,192,440z"/>
			</g>
			<g>
				<path class="st0" d="M192,464h-92c-4.4,0-8-3.6-8-8c0-4.4,3.6-8,8-8h92c4.4,0,8,3.6,8,8C200,460.4,196.4,464,192,464z"/>
			</g>
			<g>
				<path class="st0" d="M100,464c-11,0-20-9-20-20c0-11,9-20,20-20c4.4,0,8,3.6,8,8s-3.6,8-8,8c-2.2,0-4,1.8-4,4s1.8,4,4,4
					c4.4,0,8,3.6,8,8C108,460.4,104.4,464,100,464L100,464z"/>
			</g>
			<g>
				<path class="st0" d="M316,440h-92c-4.4,0-8-3.6-8-8c0-4.4,3.6-8,8-8h92c4.4,0,8,3.6,8,8C324,436.4,320.4,440,316,440L316,440z"
					/>
			</g>
			<g>
				<path class="st0" d="M316,464h-92c-4.4,0-8-3.6-8-8c0-4.4,3.6-8,8-8h92c4.4,0,8,3.6,8,8C324,460.4,320.4,464,316,464L316,464z"
					/>
			</g>
			<g>
				<path class="st0" d="M316,464c-4.4,0-8-3.6-8-8c0-4.4,3.6-8,8-8c2.2,0,4-1.8,4-4s-1.8-4-4-4c-4.4,0-8-3.6-8-8s3.6-8,8-8
					c11,0,20,9,20,20C336,455,327,464,316,464L316,464z"/>
			</g>
		</g>
		<g>
			<path class="st0" d="M272,264H144c-4.4,0-8-3.6-8-8v-80c0-4.4,3.6-8,8-8h128c4.4,0,8,3.6,8,8v80C280,260.4,276.4,264,272,264
				L272,264z M152,248h112v-64H152V248z"/>
		</g>
		<g>
			<path class="st0" d="M504,264H272c-4.4,0-8-3.6-8-8v-80c0-4.4,3.6-8,8-8h232c4.4,0,8,3.6,8,8v80C512,260.4,508.4,264,504,264
				L504,264z M280,248h216v-64H280L280,248z"/>
		</g>
		<g>
			<path class="st0" d="M272,184.1H144c-4.4,0-8-3.6-8-8V96c0-4.4,3.6-8,8-8h128c4.4,0,8,3.6,8,8v80
				C280,180.5,276.4,184.1,272,184.1z M152,168.1h112v-64H152V168.1z"/>
		</g>
		<g>
			<path class="st0" d="M504,184.1H272c-4.4,0-8-3.6-8-8V96c0-4.4,3.6-8,8-8h232c4.4,0,8,3.6,8,8v80
				C512,180.5,508.4,184.1,504,184.1z M280,168.1h216v-64H280L280,168.1z"/>
		</g>
		<g>
			<path class="st0" d="M344,136h-72c-4.4,0-8-3.6-8-8s3.6-8,8-8h72c4.4,0,8,3.6,8,8S348.4,136,344,136L344,136z"/>
		</g>
		<g>
			<path class="st0" d="M504,216h-72c-4.4,0-8-3.6-8-8s3.6-8,8-8h72c4.4,0,8,3.6,8,8S508.4,216,504,216L504,216z"/>
		</g>
		<g>
			<path class="st0" d="M504,128h-24c-4.4,0-8-3.6-8-8c0-4.4,3.6-8,8-8h24c4.4,0,8,3.6,8,8C512,124.4,508.4,128,504,128z"/>
		</g>
		<g>
			<path class="st0" d="M296,240h-24c-4.4,0-8-3.6-8-8c0-4.4,3.6-8,8-8h24c4.4,0,8,3.6,8,8C304,236.4,300.4,240,296,240L296,240z"/>
		</g>
	</g>
</g>
</svg>
